<?xml version="1.0" encoding="UTF-8"?>
<svg id="Livello_1" data-name="Livello 1" xmlns="http://www.w3.org/2000/svg" viewBox="0 0 350 350">
  <rect width="350" height="350" />
  <g>
    <g>
      <g>
        <circle cx="259.08" cy="214.63" r="4.31" style="fill: #5f90a9;">
          <animate id="cerchio_dx_2" attributeName="opacity"
            begin="3"
            values="1;0;1" dur="3s" repeatCount="indefinite"
          />
        </circle>
        <circle cx="71.56" cy="130.89" r="3.93" style="fill: #5f90a9;">
          <animate id="cerchio_sx_1" attributeName="opacity"
            begin="3"
            values="1;0;1" dur="5s" repeatCount="indefinite"
          />
        </circle>
        <circle cx="256.31" cy="61.79" r="4.82" style="fill: #5f90a9;">
          <animate id="cerchio_dx_1" attributeName="opacity"
            begin="3"
            values="1;0;1" dur="7s" repeatCount="indefinite"
          />
        </circle>
        <g>
          <rect x="79.67" y="59.91" width="6.01" height="23.62" rx="3" ry="3" style="fill: #5f90a9;" />
          <rect
            x="79.67" y="59.91" width="6.01" height="23.62" rx="3" ry="3"
            transform="translate(10.96 154.39) rotate(-90)" style="fill: #5f90a9;" />
          <animateTransform
            id="croce_sx_1" attributeName="transform"
            attributeType="XML" type="rotate"
            from="0 82.6735 71.7171" to="360 82.6735 71.7171" begin="4" dur="7"
            repeatCount="indefinite" />
        </g>
        <g>
          <rect x="272.67" y="85.75" width="3.94" height="15.48" rx="1.97" ry="1.97"
            style="fill: #5f90a9;" />
          <rect x="272.67" y="85.75" width="3.94" height="15.48" rx="1.97" ry="1.97"
            transform="translate(181.15 368.12) rotate(-90)" style="fill: #5f90a9;" />
          <animateTransform
            id="croce_dx_1" attributeName="transform"
            attributeType="XML" type="rotate"
            from="0 274.6343 93.4858" to="360 274.6343 93.4858" begin="4" dur="27"
            repeatCount="indefinite" />
        </g>
        <g>
          <rect x="88.44" y="173.43" width="3.94" height="15.48" rx="1.97" ry="1.97"
            style="fill: #5f90a9;" />
          <rect x="88.44" y="173.43" width="3.94" height="15.48" rx="1.97" ry="1.97"
            transform="translate(-90.76 271.58) rotate(-90)" style="fill: #5f90a9;" />
          <animateTransform
            id="croce_sx_2" attributeName="transform"
            attributeType="XML" type="rotate"
            from="360 90.412 181.1693" to="0 90.412 181.1693" begin="4" dur="17"
            repeatCount="indefinite" />
        </g>
      </g>
      <g>
        <path
          d="M139.04,113.22c2.11-3.37,4.84-6.08,8.34-8.02,1.87-1.04,3.83-1.85,5.87-2.38,2.41-.63,4.85-1.14,7.35-1.35,2.4-.21,4.8-.47,7.2-.75,1.06-.13,2.13-.1,3.19-.1,3.26-.02,6.52-.1,9.76,.05,2.49,.12,4.97,.48,7.46,.72,2.04,.2,4.03,.57,6.03,.95,5.97,1.15,11.04,3.84,14.86,8.71,2.91,3.71,4.68,7.87,5.63,12.48,.53,2.59,.87,5.2,1.34,7.8,.26,1.4,.2,2.86,.3,4.3,.2,2.95,.34,5.91,.24,8.89-.09,2.65-.31,5.29-.49,7.92-.14,2-.48,3.99-.88,5.96-.41,2.01-.74,4.05-1.42,6.01-1.44,4.18-3.57,7.96-6.69,11.1-2.26,2.27-4.88,4.06-7.93,5.16-3.58,1.29-7.28,1.95-11.06,2.34-4.52,.46-9.04,.96-13.6,.83-3.19-.09-6.38-.2-9.57-.48-2.72-.24-5.43-.51-8.12-.96-6.13-1.03-11.62-3.31-15.67-8.29-2.64-3.24-4.5-6.88-5.67-10.89-.56-1.9-1.02-3.84-1.31-5.78-.28-1.89-.65-3.78-.75-5.72-.16-3.04-.46-6.08-.46-9.14,0-2.96,.2-5.92,.4-8.88,.14-2.19,.55-4.33,.73-6.5,.11-1.39,.62-2.74,.86-4.12,.54-3.11,1.81-5.94,3.32-8.68,.1-.17,.24-.32,.36-.48,.19-.2,.2-.49,.37-.69Z"
          style="fill: #5f90a9;" />
        <g>
          <g>
            <path
              d="M178.78,167.67c-4.3,.13-8.43-.63-12.37-2.41-.28-.13-.6-.2-.76-.51-.11-.18-.13-.36,0-.54,.23-.53,.67-.38,1.03-.26,2.61,.92,5.29,1.6,8.03,1.94,3.98,.5,7.93,.44,11.7-1.23,.35-.15,.68-.37,1.09-.01,.31,.27,.63-.1,.92-.24,.47-.23,.89-.27,1.17,.24,.26,.47,.02,.81-.38,1.09-2.67,1.84-5.6,2.98-8.8,3.53-2.26,.39-4.53,.4-6.78,.27-2.59-.15-5.13-.71-7.58-1.57-3.05-1.07-5.92-2.5-8.5-4.48-3.85-2.96-6.53-6.78-8.29-11.26-1.05-2.66-1.67-5.42-1.8-8.3-.15-3.07,.22-6.01,1.2-8.93,.38-1.12,.3-2.37,.67-3.54,.8-2.59,2.17-4.85,3.88-6.89,2.56-3.07,5.62-5.54,9.26-7.25,2.92-1.36,5.97-2.14,9.18-2.43,5.43-.48,10.5,.65,15.24,3.25,5.98,3.27,10.7,7.82,13.58,14.08,1.7,3.68,2.18,7.54,1.35,11.54-.06,.28-.03,.57-.03,.86,.11,4.33-1.4,8.1-3.95,11.51-.62,.83-1.27,1.63-2.01,2.36-.12,.12-.23,.27-.38,.35-.4,.24-.86,.43-1.26,.08-.4-.35,.01-.71,.19-.98,1.33-2.07,2.48-4.23,3.24-6.58,.89-2.75,1.22-5.53,.92-8.44-.37-3.57-1.09-7.02-2.58-10.29-.26-.57-.49-1.16-.81-1.7-.24-.4-.39-.74,.07-1.02,.49-.31,.76,.01,1.03,.41,1.28,1.87,2.24,3.9,2.95,6.05,.02,.07,.07,.14,.12,.25,.19-5.1-7.76-14.93-13.87-17.12,.84,.71,1.82,1.25,2.66,1.97,.74,.64,1.52,1.23,2.18,1.95,.24,.26,.4,.61,.88,.51,.21-.04,.37,.13,.42,.35,.06,.27-.12,.42-.31,.57-.26,.21-.42,.01-.61-.11-2.51-1.67-4.76-3.74-7.67-4.78-1.99-.72-4.02-1.18-6.13-1.41-3.32-.37-6.53,.19-9.76,.81-2.53,.49-4.54,1.93-6.67,3.16-.67,.38-1.32,.8-1.93,1.27-.64,.51-1.08,.45-1.38-.4-.66,.68-1.31,1.28-1.67,2.11l-.02,.02v-.03c.18-.09,.38-.15,.53-.27,.29-.24,.51-.18,.74,.07,.24,.26,.08,.46-.08,.68-1.6,2.13-2.9,4.43-3.93,6.88-1.38,3.29-1.95,6.72-1.77,10.29,.25,4.79,2.16,8.92,5.01,12.67,1.71,2.25,3.78,4.12,6.27,5.5,.42,.23,.7,.55,.38,1.04-.29,.43-.69,.47-1.12,.19-6-3.94-10.43-9.04-11.84-16.29-.75-3.86-.61-7.73,.55-11.53,.05-.17,.12-.32,.02-.52-.81,.98-.91,2.21-1.1,3.34-.88,5.33-.39,10.53,1.79,15.51,1.87,4.29,5.04,7.44,8.88,9.99,3.45,2.3,7.17,3.99,11.25,4.76,2.45,.46,4.94,.61,7.41,.09,.22-.05,.46-.04,.69-.06,.14-.23,.4-.21,.63-.26,.11-.04-.1-.12-.02-.03-.3,.19-.65-.04-.95,.14Z" />
            <path
              d="M187.2,130.83c1.03,0,1.62,.78,1.42,1.7-.75,3.53-1.51,7.05-2.27,10.58-.67,3.13-1.32,6.27-2.03,9.39-.33,1.44-1.16,1.74-2.38,.88-1.89-1.34-3.74-2.73-5.58-4.14-.46-.35-.72-.33-1.1,.09-.74,.8-1.55,1.55-2.31,2.33-.27,.27-.56,.48-.9,.64-.72,.33-1.14,.16-1.36-.59-.64-2.15-1.3-4.29-1.91-6.45-.2-.72-.53-1.1-1.3-1.3-1.81-.48-3.57-1.12-5.35-1.69-.43-.14-.87-.32-.91-.79-.04-.48,.4-.77,.78-.93,1.89-.78,3.79-1.53,5.7-2.27,5.01-1.95,10.01-3.9,15.02-5.84,1.3-.5,2.59-1.01,3.9-1.49,.24-.09,.5-.1,.6-.12Z" />
          </g>
          <path
            d="M194.54,160.02c0,.25-.03,.46-.18,.67-.67,.93-1.49,1.72-2.35,2.47-.15,.13-.37,.3-.61,.09-.21-.19-.21-.43-.11-.63,.55-1.09,1.06-2.21,1.97-3.06,.23-.21,.54-.44,.92-.22,.28,.16,.4,.39,.37,.68Z" />
          <path
            d="M165.65,164.21c0,.18,0,.36,0,.54-.17-.24-.35-.43-.69-.35-.33,.07-.61-.11-.89-.25-.35-.17-.62-.43-.37-.88,.23-.44,.58-.53,1.01-.34,.55,.24,.82,.7,.94,1.28Z"
            style="fill: #000101;" />
        </g>
        <g>
          <circle cx="175.01" cy="225.96" r="6.69" style="fill: #5f90a9;" />
          <path
            d="M213.7,40.92h-77.75c-9.95,0-18.02,8.07-18.02,18.02V225.47c0,9.95,8.07,18.02,18.02,18.02h77.75c9.95,0,18.02-8.07,18.02-18.02V58.95c0-9.95-8.07-18.02-18.02-18.02Zm12.05,184.82c0,6.73-5.46,12.19-12.19,12.19h-77.13c-6.73,0-12.19-5.46-12.19-12.19V59.03c0-6.73,5.46-12.19,12.19-12.19h77.13c6.73,0,12.19,5.46,12.19,12.19V225.74Z"
            style="fill: #5f90a9;" />
          <rect x="159.88" y="55.32" width="29.51" height="5.61" rx="2.81" ry="2.81"
            style="fill: #5f90a9;" />
          <rect x="124.23" y="67.87" width="101.52" height="6.27" style="fill: #5f90a9;" />
          <rect x="124.24" y="208.36" width="101.52" height="6.27" style="fill: #5f90a9;" />
        </g>
      </g>
    </g>
    <g id="scritta_criptolab">
      <path id="C"
        d="M68.7,306.16v-3.67h-3.67v-18.33h3.67v-3.67h14.66v3.67h3.67v3.67h-7.33v-3.67h-7.33v18.33h7.33v-3.67h7.33v3.67h-3.67v3.67h-14.66Z"
        style="fill: #d05246;">
        <animate id="fill_red" attributeName="fill" values="#d05246;#dac7b6;#5f91aa;#d05246"
          begin="3" dur="3s" repeatCount="indefinite" />
      </path>
      <path id="R"
        d="M91.61,306.16v-25.66h18.33v3.67h3.67v3.67h-3.67v3.67h3.67v14.66h-7.33v-14.66h-7.33v14.66h-7.33Zm14.66-18.33v-3.67h-7.33v3.67h7.33Z"
        style="fill: #dac7b6;">
        <animate id="fill_yellow" attributeName="fill" values="#dac7b6;#5f91aa;#d05246;#dac7b6"
        begin="3" dur="3s" repeatCount="indefinite" />
      </path>
      <path id="I"
        d="M118.19,284.17v-3.67h7.33v3.67h-7.33Zm0,21.99v-18.33h7.33v18.33h-7.33Z"
        style="fill: #5f91aa;">
        <animate id="fill_ciano" attributeName="fill" values="#5f91aa;#d05246;#dac7b6;#5f91aa"
        begin="3" dur="3s" repeatCount="indefinite" />
      </path>
      <path id="P"
        d="M130.1,306.16v-25.66h18.33v3.67h3.67v3.67h-3.67v3.67h-11v14.66h-7.33Zm14.66-18.33v-3.67h-7.33v3.67h7.33Z"
        style="fill: #d05246;">
        <animate id="fill_red" attributeName="fill" values="#d05246;#dac7b6;#5f91aa;#d05246"
          begin="3" dur="3s" repeatCount="indefinite" />
      </path>
      <path id="T"
      d="M164,306.16v-21.99h-7.33v-3.67h21.99v3.67h-7.33v21.99h-7.33Z" style="fill: #dac7b6;" >
      <animate id="fill_yellow" attributeName="fill" values="#dac7b6;#5f91aa;#d05246;#dac7b6"
        begin="3" dur="3s" repeatCount="indefinite" />
      </path>
      <path id="O"
        d="M186.91,306.16v-3.67h-3.67v-18.33h3.67v-3.67h14.66v3.67h3.67v18.33h-3.67v3.67h-14.66Zm11-3.67v-18.33h-7.33v18.33h7.33Z"
        style="fill: #5f91aa;">
        <animate id="fill_ciano" attributeName="fill" values="#5f91aa;#d05246;#dac7b6;#5f91aa"
        begin="3" dur="3s" repeatCount="indefinite" />
      </path>
      <path id="L"
       d="M209.82,306.16v-25.66h7.33v21.99h14.66v3.67h-21.99Z" style="fill: #dac7b6;">
       <animate id="fill_yellow" attributeName="fill" values="#dac7b6;#5f91aa;#d05246;#dac7b6"
        begin="3" dur="3s" repeatCount="indefinite" />
      </path>
      <path id="A"
        d="M236.4,306.16v-21.99h3.67v-3.67h14.66v3.67h3.67v21.99h-7.33v-14.66h-7.33v14.66h-7.33Zm14.66-18.33v-3.67h-7.33v3.67h7.33Z"
        style="fill: #5f91aa;" >
        <animate id="fill_ciano" attributeName="fill" values="#5f91aa;#d05246;#dac7b6;#5f91aa"
        begin="3" dur="3s" repeatCount="indefinite" />
      </path>
      <path id="B"
        d="M262.97,306.16v-25.66h18.33v3.67h3.67v3.67h-3.67v3.67h3.67v11h-3.67v3.67h-18.33Zm14.66-18.33v-3.67h-7.33v3.67h7.33Zm0,14.66v-11h-7.33v11h7.33Z"
        style="fill: #d05246;">
        <animate id="fill_red" attributeName="fill" values="#d05246;#dac7b6;#5f91aa;#d05246"
          begin="3" dur="3s" repeatCount="indefinite" />
      </path>
    </g>
  </g>
</svg>