<svg width="350" height="350" viewBox="0 0 766 833" fill="none" xmlns="http://www.w3.org/2000/svg">
<path d="M190.91 538.42C190.97 537.14 191.04 530.03 186.04 524.75C182.72 521.25 178.08 519.48 172.26 519.48C156.94 519.48 152.19 535.6 151.81 544.14L150.07 588.46L190.57 577.45L190.9 538.41L190.91 538.42Z" fill="#13080E"/>
<path d="M82.9698 577.85C83.0398 576.8 83.1299 572.68 80.1299 569.17C77.7099 566.34 74.1098 564.77 69.4198 564.5C65.6498 564.29 62.2998 565.4 59.7498 567.74C54.8998 572.17 54.4998 579.42 54.4698 580.46L52.6498 620.11L81.9798 607.03L82.9698 577.84V577.85Z" fill="#13080E"/>
<path d="M133.46 591.36V588.54L135.26 557.05C135.55 555.24 136.49 547.18 131.62 541.39C129.54 538.92 125.58 535.98 118.45 535.98C102.9 535.98 98.0798 551.31 97.6898 559.4L95.5898 604.14L130.66 592.3L133.46 591.35V591.36Z" fill="#13080E"/>
<path d="M515.4 616H558.89V577.16L515.4 573.73V616Z" fill="#13080E"/>
<path d="M248.64 524.17C248.78 522.75 249.14 515.9 244.33 510.45C240.48 506.08 234.54 503.87 226.68 503.86C208.83 503.86 204.11 521.08 204.11 530.18V575.63L247.01 567.85L248.64 524.17Z" fill="#13080E"/>
<path d="M447.77 626.77C447.77 618.58 442.35 603.1 421.84 603.1C401.33 603.1 395.91 618.58 395.91 626.77V676.84H447.78V626.77H447.77Z" fill="#13080E"/>
<path d="M643.16 590.32L600.94 581.91V618.98L643.16 624.02V590.32Z" fill="#13080E"/>
<path d="M483.42 696.49H443.7V747.17H483.42V696.49Z" fill="#13080E"/>
<path d="M383.06 0.200195L0.339844 614.39L383.06 832.2L765.78 614.39L383.06 0.200195ZM702.92 566.91L691.47 563.53L442.6 382.72L447.25 376.21L697.23 557.83L702.92 566.91ZM383.06 417.99L332.94 348.32L383.06 375.69L433.18 348.32L383.06 417.99ZM387.06 444.57V565.96H379.06V444.57C380.38 444.75 381.71 444.85 383.07 444.85C384.43 444.85 385.75 444.75 387.06 444.57ZM318.88 376.2L323.53 382.71L263.78 426.12L260.16 418.86L318.88 376.2ZM242.93 384.25L239.32 377.01L304.36 355.88L308.87 362.19L309.06 362.76L242.93 384.25ZM333.23 396.29L338.13 403.15L292.01 466.63L289.24 456.84L333.23 396.29ZM350.79 420.88L356.57 428.98L322.95 532.44L314.5 532.56L350.79 420.88ZM328.96 334.86L383.06 251.59L437.16 334.86L383.06 364.41L328.96 334.86ZM415.33 420.89L447.65 520.37H439.24L409.55 428.99L415.33 420.89ZM427.99 403.17L432.89 396.31L525.03 523.13L514.34 522.03L427.99 403.17ZM605.11 410.88L456.89 362.72L461.77 355.89L598.49 400.31L605.11 410.87V410.88ZM559.76 338.53H468.37C468.5 335.85 468.26 333.16 467.65 330.53H554.74L559.76 338.53ZM529.97 291L459.11 314.02L454.62 307.07L525.59 284.01L529.97 291ZM504.88 250.97L446.02 293.73L441.68 287L500.63 244.17L504.89 250.97H504.88ZM478.87 209.47L432.68 273.05L428.03 265.84L474.29 202.16L478.87 209.47ZM439.77 147.09L445.31 155.93L415.77 246.84L410.17 238.17L439.76 147.09H439.77ZM379.08 63.1402L383.08 56.6402L387.08 63.0202V221.29C385.76 221.11 384.43 221.01 383.08 221.01C381.73 221.01 380.4 221.11 379.08 221.29V63.1302V63.1402ZM326.73 148.16L355.97 238.16L350.38 246.83L321.22 157.1L326.73 148.16ZM292.74 203.37L338.12 265.83L333.47 273.04L288.2 210.73L292.74 203.36V203.37ZM266.97 245.22L324.47 286.99L320.13 293.72L262.77 252.05L266.98 245.22H266.97ZM242.67 284.69L311.52 307.06L307.03 314.01L238.35 291.69L242.67 284.68V284.69ZM214.45 330.52H298.49C297.88 333.15 297.64 335.84 297.77 338.52H209.53L214.46 330.52H214.45ZM124.62 438.31C140.7 425.59 178.05 397.77 206.63 389.9C226.43 422.38 235.94 447.39 239.66 458.62C198.75 465.63 134.19 487.27 68.7399 527.99L124.61 438.31H124.62ZM17.6198 610.02L53.1998 552.93C127.97 501.24 204.73 475.85 248.09 469.76L261.32 467.45C262.9 467.17 264.52 467.77 265.54 469.01C266.26 469.89 266.61 471.01 266.52 472.15L264.75 493.87C263.68 506.96 265.19 519.92 269.24 532.37L279.22 563.16L313.59 560.67C318.44 560.31 323.06 562.64 325.65 566.75C327.54 569.75 328.53 573.21 328.53 576.76V591.51C280.07 590.58 145.77 604.31 67.6398 638.51L17.5999 610.02H17.6198ZM223.63 727.3L195.16 711.09L237.22 706.95L236.9 655.62C237 653.98 237.36 644.68 231.6 638.42C228.18 634.69 223.44 632.8 217.51 632.8C208.81 632.8 201.87 635.4 196.89 640.53C189.21 648.43 189.16 659.51 189.19 660.94L188.33 707.22L164.35 693.58L165.03 663.01C165.23 661.29 165.8 653.15 160.9 647.61C158.96 645.42 155.36 642.81 149.23 642.81H149.13C131.4 643.26 126.71 659.89 126.71 668.62V672.14L81.1998 646.23C123.94 629.16 178.17 618.85 217.66 613.07C264.07 606.28 306.64 603.43 328.55 603.85V619.06L348.05 689.43L368.88 691.23C385.03 692.62 398.34 704.66 401.24 720.49L401.69 722.98C374.3 722.52 279.42 721.4 223.65 727.3V727.32L223.63 727.3ZM383.05 818.01L376.89 814.5L376.64 782.04C376.87 779.84 377.79 767.3 370.01 758.5C365.08 752.93 357.89 750.11 348.62 750.11C339.35 750.11 332.14 752.93 327.16 758.5C319.26 767.34 320.1 779.96 320.3 782.04V782.3L242.44 737.99C300.15 733.76 382.82 734.93 403.92 735.32L415.66 799.43H415.67L383.04 818.01H383.05ZM413.4 718.26C409.5 696.98 391.63 680.81 369.92 678.94L357.69 677.88L340.92 617.38V596.69L471.19 591.96L480.01 650.9L528.15 735.4L427.06 792.93L413.39 718.26H413.4ZM584.31 646.53C561.64 646.53 555.65 666.08 555.65 676.43V719.79L538.93 729.3L491.95 646.85L481.83 579.27L460.83 580.03V551.55C494.18 551.79 655.6 555.99 742.7 613.31L612.95 687.15V676.42H612.96C612.96 666.09 606.97 646.53 584.3 646.53H584.31Z" fill="#13080E"/>
<path d="M307.5 628.75C302.65 624.33 296.35 622.42 288.77 623.07C268.11 624.82 262.19 643.65 261.95 653.37V704.66L316.86 701.97V652.31C316.86 651.7 316.76 637.18 307.5 628.75Z" fill="#13080E"/>
</svg>
