<?xml version="1.0" encoding="UTF-8"?>
<svg id="hydro_logo" xmlns="http://www.w3.org/2000/svg" viewBox="0 0 350 350">
  <rect width="350" height="350" style="fill: #fff;" />
  <g>
    <path id="rubinetto"
      d="M294.66,103.35v-22.75c0-2.9-1.14-5.68-3.19-7.74-2.11-2.12-4.97-3.35-7.96-3.41-6.16-.13-11.25,4.76-11.37,10.92,0,.08,0,.15,0,.23v14.56h-43.23c-4.91-4.91-11.04-8.44-17.75-10.24,2.93-.92,5-3.54,5.23-6.6-.48-4.35-4.28-7.55-8.65-7.28h-2.73v-9.56h25.26c3.89,.13,7.15-2.93,7.28-6.82,0-.15,0-.31,0-.46,0-4.02-3.26-7.28-7.28-7.28-.08,0-.15,0-.23,0h-25.03c.03-2.64-2.09-4.8-4.73-4.83-.24,0-.49,.01-.73,.05-3.64,0-5.46,2.05-5.46,4.78h-25.26c-3.89-.13-7.15,2.93-7.28,6.82,0,.15,0,.31,0,.46,0,4.02,3.26,7.28,7.28,7.28,.08,0,.15,0,.23,0h25.03v9.56h-2.96c-4.28-.15-7.95,3.03-8.42,7.28,.11,2.77,1.79,5.25,4.32,6.37-9.15,2.23-17.21,7.63-22.75,15.24h-53.7c-2.93-.13-5.45,2.08-5.69,5.01v33.68h0c-2.89-.13-5.33,2.11-5.46,5,0,0,0,0,0,0v9.56h0c.11,2.76,2.45,4.91,5.21,4.8,.08,0,.17,0,.25-.02h34.36c2.76,.13,5.1-2.01,5.23-4.77,0,0,0,0,0-.01v-9.56c0-2.76-2.24-5.01-5-5.01-.08,0-.16,0-.23,0v-9.78c.11-2.64,2.34-4.68,4.98-4.57,.08,0,.17,0,.25,.02h15.7c5.11,17.28,21.36,28.83,39.36,27.99,14.14,.32,27.46-6.64,35.27-18.43h38.23v19.34c0,6.16,4.99,11.15,11.15,11.15,.08,0,.15,0,.23,0,2.9,0,5.68-1.14,7.74-3.19,2.16-2.09,3.4-4.96,3.41-7.96v-18.43c-1.51-10.4-1.82-20.93-.91-31.4Z"
      style="fill: #232856;" />
    <g>
      <g>
        <path id="anello_3"
          d="M117.91,265.64c-35.06,0-63.48,9.46-63.48,21.13s28.42,21.13,63.48,21.13,63.48-9.46,63.48-21.13-28.42-21.13-63.48-21.13Zm-.23,35.72c-31.54,0-57.11-6.58-57.11-14.7s25.57-14.7,57.11-14.7,57.11,6.58,57.11,14.7-25.57,14.7-57.11,14.7Z"
          style="fill: #232856; opacity: 0">
          <animate id="anello_3_opacita" attributeName="opacity"
            values="0;1" begin="anello_2_opacita.end" dur="1s"
          />
          <animate id="anello_3_opacita_freeze" attributeName="opacity"
            values="1" begin="anello_3_opacita.end" dur="2s"
          />
          <animate id="anello_3_opacita_finale" attributeName="opacity"
            values="1;0" begin="anello_3_opacita_freeze.end" dur="1s"
          />
        </path>
        <path id="anello_2"
          d="M117.91,276.74c-21.21,0-38.41,4.38-38.41,9.78s17.2,9.78,38.41,9.78,38.41-4.38,38.41-9.78-17.2-9.78-38.41-9.78Zm-.12,14.22c-16.98,0-30.75-1.74-30.75-3.9s13.77-3.9,30.75-3.9,30.75,1.74,30.75,3.9-13.77,3.9-30.75,3.9Z"
          style="fill: #232856; opacity: 0">
          <animate id="anello_2_opacita" attributeName="opacity"
            values="0;1" begin="goccia_discendente.end-0.5" dur="1s"
          />
          <animate id="anello_2_opacita_freeze" attributeName="opacity"
            values="1" begin="anello_2_opacita.end" dur="3s"
          />
          <animate id="anello_2_opacita_finale" attributeName="opacity"
            values="1;0" begin="anello_2_opacita_freeze.end" dur="1s"
          />
        </path>
        <g id="splash" style="opacity: 0">
          <path
            d="M116.59,296.3c1.48-.12,2.46-.28,10.51-1.27,4.43-.54,8.07-.98,10.51-1.27-1.84-2.6-3.76-5.65-5.56-9.13-2.27-4.37-3.52-7.87-4.88-11.72-2.86-8.03-1.92-7.69-4.47-14.57-2.39-6.44-3.44-7.35-2.87-9.74,.86-3.62,3.92-4.21,4.94-9.16,.6-2.9-.05-4.66-.3-5.27-.28-.67-1.07-2.27-2.79-3.36-.99-.62-2.58-1.25-3.43-1.06-.14,.03-.19-.11-.32-.03-.13-.08-.18,.06-.32,.03-.85-.19-2.44,.44-3.43,1.06-1.73,1.08-2.52,2.69-2.79,3.36-.31,.74-.87,2.41-.3,5.27,.98,4.96,3.81,5.63,4.64,9.22,.66,2.85-.62,4.6-2.65,9.66-2.75,6.86-2.08,7.84-4.39,14.59-1.74,5.07-4.78,12.3-10.45,20.85,7.92,2.65,14.09,2.87,18.37,2.53Z"
            style="fill: #232856;" />
          <path
            d="M115.76,233.49c.22,.91-.48,2.3-1.36,2.71-.86,.4-1.53,.04-1.64-.89-.11-.89,.57-2.09,1.4-2.5,.77-.38,1.41-.11,1.6,.67Z"
            style="fill: #fff;" />
          <animate id="splash_opacita" attributeName="opacity"
            values="0;1" begin="goccia_discendente.end-0.5" dur="1s"
          />
          <animate id="splash_opacita_freeze" attributeName="opacity"
            values="1" begin="splash_opacita.end" dur="3s"
          />
          <animate id="splash_opacita_finale" attributeName="opacity"
            values="1;0" begin="splash_opacita_freeze.end" dur="1s"
          />
        </g>
      </g>
      <path id="goccia"
        d="M118.11,166.08c.98,6.78,4.78,12.21,7.93,17.94,1.76,3.2,3.12,6.54,3.24,10.28,.18,5.92-3.12,10.19-8.84,11.32-4.09,.8-7.79-.19-10.85-3.08-3.27-3.08-3.49-7.03-2.62-11.16,.75-3.53,2.48-6.61,4.3-9.65,2.19-3.65,4.49-7.24,5.75-11.37,.43-1.41,.73-2.85,1.09-4.28Zm-5.37,17.88c-2.29,2.94-4.06,6.06-3.93,9.94,0,.21,.02,.43,.07,.63,.33,1.39,1.48,1.8,2.57,.89,1.04-.87,1.29-2.06,1.12-3.36-.24-1.79-.18-3.58-.1-5.37,.05-.92,.18-1.83,.27-2.74Zm-.4,14.7c-.96,0-1.45,.63-1.25,1.61,.23,1.05,1.42,2.16,2.48,2.3,1.1,.14,1.71-.5,1.5-1.59-.21-1.12-1.61-2.3-2.73-2.31Z"
        style="fill: #232856;">
        <animateTransform id="goccia_discendente"
          attributeType="xml"
          attributeName="transform"
          type="translate"
          begin="0;anello_3_opacita_freeze.end"
          dur="5s"
          values="0,-27;0,77" />
        <animate id="goccia_opacita" attributeName="opacity"
          values="1;0" begin="goccia_discendente.end-1" dur="1s"
        />
        <animate id="goccia_opacita_finale" attributeName="opacity"
          values="0" begin="goccia_opacita.end" dur="4s"
        />
      </path>
    </g>
  </g>
</svg>