<?xml version="1.0" encoding="UTF-8"?>
<svg id="infranto_logo_tv" xmlns="http://www.w3.org/2000/svg"
  xmlns:xlink="http://www.w3.org/1999/xlink" viewBox="-63.635 -22.74385 400 400">
  <defs>
    <filter id="drop-shadow-1" filterUnits="userSpaceOnUse">
      <feOffset dx="6.75" dy="6.75" />
      <feGaussianBlur result="blur" stdDeviation="4.82" />
      <feFlood flood-color="#010101" flood-opacity=".75" />
      <feComposite in2="blur" operator="in" />
      <feComposite in="SourceGraphic" />
    </filter>
    <filter id="drop-shadow-2" filterUnits="userSpaceOnUse">
      <feOffset dx="6.75" dy="6.75" />
      <feGaussianBlur result="blur-2" stdDeviation="4.82" />
      <feFlood flood-color="#010101" flood-opacity=".75" />
      <feComposite in2="blur-2" operator="in" />
      <feComposite in="SourceGraphic" />
    </filter>
    <filter id="drop-shadow-3" filterUnits="userSpaceOnUse">
      <feOffset dx="6.75" dy="6.75" />
      <feGaussianBlur result="blur-3" stdDeviation="4.82" />
      <feFlood flood-color="#010101" flood-opacity=".75" />
      <feComposite in2="blur-3" operator="in" />
      <feComposite in="SourceGraphic" />
    </filter>
    <filter id="drop-shadow-4" filterUnits="userSpaceOnUse">
      <feOffset dx="6.75" dy="6.75" />
      <feGaussianBlur result="blur-4" stdDeviation="4.82" />
      <feFlood flood-color="#010101" flood-opacity=".75" />
      <feComposite in2="blur-4" operator="in" />
      <feComposite in="SourceGraphic" />
    </filter>
    <filter id="drop-shadow-5" filterUnits="userSpaceOnUse">
      <feOffset dx="6.75" dy="6.75" />
      <feGaussianBlur result="blur-5" stdDeviation="4.82" />
      <feFlood flood-color="#010101" flood-opacity=".75" />
      <feComposite in2="blur-5" operator="in" />
      <feComposite in="SourceGraphic" />
    </filter>
    <filter id="drop-shadow-6" filterUnits="userSpaceOnUse">
      <feOffset dx="6.75" dy="6.75" />
      <feGaussianBlur result="blur-6" stdDeviation="4.82" />
      <feFlood flood-color="#010101" flood-opacity=".75" />
      <feComposite in2="blur-6" operator="in" />
      <feComposite in="SourceGraphic" />
    </filter>
  </defs>
  <rect x="-63.635 " y="-22.74385" width="400" height="400" style="fill: #fff;" />
  <g style="filter: url(#drop-shadow-1);">
    <path
      d="M86.91,135.01c1.7-18.51,24.41-33.17,52.19-33.17s51.75,15.48,52.28,34.72h-53.23l-51.24-1.54Z"
      style="fill: #f39323;" />
    <g>
      <g>
        <rect x="176.75" y="47.39" width="7" height="70.97"
          transform="translate(57.54 -73.01) rotate(27.1)" style="fill: #f39323;" />
        <rect x="202.51" y="20.02" width="2.88" height="33.08"
          transform="translate(39.04 -88.89) rotate(27.1)" style="fill: #f39323;" />
      </g>
      <path
        d="M216.78,12.02l-.44-.22-3.19-1.63c-1.05-.54-2.32,.12-2.49,1.29l-1.13,8.09c-.1,.73,.27,1.44,.92,1.77l.81,.41,.44,.22,.81,.41c.65,.33,1.44,.22,1.97-.29l5.9-5.65c.85-.82,.65-2.23-.41-2.77l-3.19-1.63Z"
        style="fill: #f39323;" />
    </g>
    <path id="antenna_sx"
      d="M99.75,66.26l-9.15-24.59-1.93,.72-11.54-31-.27,.1c.69-.26,1.14-.92,1.12-1.65l-.18-8.17c-.03-1.18-1.21-1.99-2.32-1.57l-3.36,1.25-.46,.17-3.36,1.25c-1.11,.41-1.48,1.79-.73,2.71l5.2,6.3c.47,.56,1.24,.77,1.93,.52l-.27,.1,11.54,31-1.93,.72,9.15,24.59,6.88,18.48,6.56-2.44-6.88-18.48Z"
      style="fill: #f39323;">
      <animate id="antenna_sx_piega_1" attributeName="d"
        begin="pomello_interno_rotazione_90.end-2"
        dur="7s"
        from="M99.75,66.26l-9.15-24.59-1.93,.72-11.54-31-.27,.1c.69-.26,1.14-.92,1.12-1.65l-.18-8.17c-.03-1.18-1.21-1.99-2.32-1.57l-3.36,1.25-.46,.17-3.36,1.25c-1.11,.41-1.48,1.79-.73,2.71l5.2,6.3c.47,.56,1.24,.77,1.93,.52l-.27,.1,11.54,31-1.93,.72,9.15,24.59,6.88,18.48,6.56-2.44-6.88-18.48Z"
        to="M81.11,58.36l-24.36-9.74-.76,1.91-30.71-12.28-.11,.27c.27-.68,.08-1.46-.47-1.94l-6.17-5.35c-.89-.77-2.28-.44-2.72,.66l-1.33,3.33-.18,.45-1.33,3.33c-.44,1.1,.34,2.3,1.52,2.36l8.16,.38c.73,.03,1.4-.4,1.68-1.08l-.11,.27,30.71,12.28-.76,1.91,24.36,9.74,18.31,7.32,2.6-6.5-18.31-7.32Z"
        />
        <animate id="antenna_sx_piega_1_freeze" attributeName="d"
        begin="antenna_sx_piega_1.end"
        dur="17s"
        values="M81.11,58.36l-24.36-9.74-.76,1.91-30.71-12.28-.11,.27c.27-.68,.08-1.46-.47-1.94l-6.17-5.35c-.89-.77-2.28-.44-2.72,.66l-1.33,3.33-.18,.45-1.33,3.33c-.44,1.1,.34,2.3,1.52,2.36l8.16,.38c.73,.03,1.4-.4,1.68-1.08l-.11,.27,30.71,12.28-.76,1.91,24.36,9.74,18.31,7.32,2.6-6.5-18.31-7.32Z"
        />
    </path>
    <polygon
      points="92.87 68.14 101.74 91.53 111.04 116.05 117.59 113.57 108.28 89.04 99.41 65.65 92.87 68.14"
      style="fill: #f39323;" />
  </g>
  <rect x="42.84" y="157.7" width="178.19" height="144.25" style="fill: #fff;" />
  <g id="frammento" style="filter: url(#drop-shadow-2); opacity: 0">
    <path d="M71.94,245.17l-21.03-7.88,20.69,8.55c.06-.25,.18-.48,.34-.67Z"
      style="fill: #010101; stroke: #010101; stroke-miterlimit: 10; stroke-width: .3px;" />
    <path d="M50.85,247.2l-3.49-.23,3.58,.68c-.04-.14-.07-.29-.08-.44Z"
      style="fill: #010101; stroke: #010101; stroke-miterlimit: 10; stroke-width: .3px;" />
    <path
      d="M155.98,214.1c-1.37-.26-4.18-.87-6.95-1.16-.19,.49-.59,.88-1.2,.97-.26,.44-.71,.76-1.37,.76-.41,0-.74-.12-.99-.32-.12,.04-.25,.08-.37,.12,.27-.09-.21,.09-.22,.1-.16,.08-.31,.15-.47,.23-.65,.33-1.35,.27-1.87-.14-.02,0-.04,0-.07,0-.58,0-1-.24-1.27-.6-4.03,1.92-6.75,4.53-8.24,6.18-2.04,1.09-5.05,2.39-8.85,3.07-3.3,.59-6.16,.52-8.26,.31-.7-17.99-2.47-27.16-5.31-27.52-.55-.07-1.14,.2-1.78,.79-.7,5.2-1.4,10.4-2.1,15.6,1.92,.24,1.84,3.38-.24,3.38-.07,0-.14,0-.21-.01l-.87,6.45c.16-.11,.31-.21,.47-.31,1.85-1.15,3.53,1.79,1.7,2.93-1.5,.93-2.83,2.53-4.58,2.97-1.73,.44-3.15-.69-3.99-2.12-.81-1.37-.89-2.92-.96-4.48-.04-.86-.04-1.74-.18-2.59-.03-.19-.17-.55-.3-.88-.09,.24-.17,.46-.19,.51-.29,1.29-.37,2.62-.47,3.93-.18,2.26,.04,5.46-1.31,7.42-1.01,1.46-2.92,.81-3.13-.86-.68-5.34-1.09-10.68-2.36-15.92-.09-.39-.06-.73,.06-1.03-.5-1.39-1.06-2.8-1.71-4.24-4.66-10.39-11.09-17.06-15.05-20.58l14.97,48.05c.1,.01,.19,.03,.28,.06,.16-.05,.34-.08,.54-.08,.31,0,.58,.07,.8,.19,.29-.07,.6-.08,.86-.02,.21,.05,.38,.14,.53,.25,1.13-1.06,3.32,.49,2.53,2.24,0,.02,0,.04,0,.06,.37,.17,.63,.49,.77,.85,1.1,.09,2.14,1.27,1.41,2.52-.41,.71-1.06,1.38-1.66,2.08-.07,.59-.41,1.14-1.01,1.36-.32,.56-.53,1.16-.49,1.82,.11,2.19-3.25,2.17-3.36,0-.04-.72,.07-1.35,.27-1.93-.32-.27-.53-.69-.51-1.24,0-.21,.02-.41,.04-.61-.38-.52-.45-1.26-.18-1.85-.08-.03-.15-.06-.23-.1-.71-.38-1.08-1.48-.67-2.21-.06,0-.11,0-.17,0-.42,0-.76-.13-1.02-.34l-3.94,1.74-17.41-37.16,16.82,46.38-6.62-2.48c0,.13,0,.26-.03,.39,.17,.2,.28,.45,.34,.71l3.35,1.38-3.34-.22c-.09,.5-.39,.95-.87,1.18-.24,.51-.72,.89-1.45,.89-.65,0-1.11-.31-1.37-.74-.03,0-.06,0-.09,0-1.08,0-1.62-.85-1.62-1.69l-13.33-.89c-.03,.05-.06,.1-.1,.15,0,0,0,.01-.01,.02-.03,.04-.07,.09-.11,.13,0,0,0,0-.01,.01-.09,.09-.19,.17-.3,.23,0,0-.01,0-.02,0-.05,.03-.1,.05-.15,.07-.02,0-.03,.01-.05,.02-.04,.02-.09,.03-.13,.04-.02,0-.04,.01-.06,.02-.05,.01-.09,.02-.14,.03-.02,0-.04,0-.06,0-.07,0-.14,.01-.22,.01-.03,0-.06,0-.09,0-.04,.07-.08,.13-.13,.19l20.7,3.92-6.49,1.54h6.2l-23.61,10.44,23.61-6.45-16.82,13.82,18-9.83-1.77,7.99,3.84-3.38-9.45,26.72,12.99-23.04,.1,.18c.22-.24,.5-.42,.79-.51,2.54-.73,5.09-1.18,7.58-.07,1.68,.75,.69,2.97-.84,3.09,.27,.28,.51,.59,.72,.94,.36,.59,.31,1.17,.04,1.62l1.35,1.82,2.95-6.76s1.97-.2,3.18,.06c.26-.23,.62-.38,1.06-.38,.73,0,1.21,.38,1.45,.89,.21-.1,.45-.16,.73-.16,1.22,0,1.75,1.07,1.6,2.01l2.02,1.26h2.66v-1.54l1.77-.61v19.66l2.66-19.35,10.33,29.48-7.38-30.41,3.84-1.23-1.48-5.84h12.69l-11.22-5.22,8.56-6.45c-2.43-.54-4.86-1.07-7.29-1.61-.33-.9-.65-1.79-.98-2.69l2.06-4.29c-.75-.85-.5-2.5,.75-2.82,.18-.63,.7-1.16,1.54-1.16,.01,0,.02,0,.03,0,.26-.23,.61-.37,1.05-.37,.38,0,.68,.1,.93,.27,6.71-4.94,12.44-8.13,16.74-10.22,2.48-1.2,5.31-2.45,8.77-5.07,5.24-3.97,8.58-8.59,10.63-11.98-.69,.42-3.22,1.84-6.49,1.23Z"
      style="fill: #010101; stroke: #010101; stroke-miterlimit: 10; stroke-width: .3px;" />
    <g>
      <line x1="162.47" y1="212.87" x2="229.47" y2="174.48" style="fill: #010101;" />
      <path
        d="M162.47,212.87c9.21-5.56,23.99-13.9,33.43-19.33,9.48-5.41,24.09-13.91,33.58-19.07-9.21,5.56-23.99,13.89-33.43,19.33-9.48,5.41-24.09,13.91-33.58,19.07h0Z"
        style="fill: #010101;" />
    </g>
    <g>
      <path
        d="M145.64,210.91s.06,0,.09,0c.03,0,.05,0,.07,0l26.41-23.83c-1.97,1.33-3.94,2.66-5.9,3.99-6,3.48-12,6.96-18,10.44-1.25,2.9-2.49,5.79-3.74,8.69,.5,.08,.85,.35,1.07,.72Z"
        style="fill: #010101;" />
      <path
        d="M145.65,210.9s.1-.01,.16,0c0,0-.01,0-.01,0l6.52-6.05c4.18-3.82,15.4-14.03,19.72-17.97,0,0,.33,.42,.33,.42l-5.8,3.9c-3.68,2.09-14.57,8.44-18.12,10.37,0,0-3.84,8.64-3.84,8.64l-.03-.05c.44,.07,.86,.35,1.07,.74h0Zm-.01,.03c-.26-.45-.66-.61-1.08-.74,0,0,3.73-8.69,3.73-8.69,0-.01,12.08-7.01,12.09-7.02,0,0,6.04-3.51,6.04-3.51l5.78-3.91c.01,.07-26.34,24.05-26.56,23.88h0Z"
        style="fill: #010101;" />
    </g>
    <path d="M121.76,257.05c7.37-1.81,16.85-8.27,26.35-13.34,19.32-10.31,31.47-24.18,38.14-33.23"
      style="fill: #010101; stroke: #010101; stroke-miterlimit: 10; stroke-width: .3px;" />
    <path d="M106.62,315.78c2.16-12.15,3.61-23.97,3.61-23.97l-4.88,23.96c.42,0,.85,0,1.27,.01Z"
      style="fill: #010101; stroke: #010101; stroke-miterlimit: 10; stroke-width: .3px;" />
    <path d="M91.31,315.62l1.5-38.25s-2.48,25.52-2.5,38.22c.33,0,.66,.02,.99,.03Z"
      style="fill: #010101; stroke: #010101; stroke-miterlimit: 10; stroke-width: .3px;" />
    <path d="M90.32,307.54c-1.07,2.38-2.13,4.76-3.2,7.13"
      style="fill: #010101; stroke: #010101; stroke-miterlimit: 10; stroke-width: .3px;" />
    <path d="M70.09,293.34c-3.8,7.13-8.17,13.92-11.7,20.58"
      style="fill: #010101; stroke: #010101; stroke-miterlimit: 10; stroke-width: .3px;" />
    <line x1="75.69" y1="270" x2="58.72" y2="284.12"
      style="fill: #010101; stroke: #010101; stroke-miterlimit: 10; stroke-width: .3px;" />
    <path d="M49.46,282.51c.69,.53,1.18,1.25,1.48,2.05l8.52-12.72-10,10.67Z"
      style="fill: #010101; stroke: #010101; stroke-miterlimit: 10; stroke-width: .3px;" />
    <path d="M42.92,289.49l-3.62,3.86s-6.38,14.55,0,8.6l7.12-10.63c-1.61-.06-2.78-.79-3.51-1.82Z"
      style="fill: #010101; stroke: #010101; stroke-miterlimit: 10; stroke-width: .3px;" />
    <line x1="52.67" y1="264.47" x2="26.87" y2="271.39"
      style="fill: #010101; stroke: #010101; stroke-miterlimit: 10; stroke-width: .3px;" />
    <path d="M28.41,230.11l-8.96-7.98c1.25,1.59,4.66,4.52,8.96,7.98Z"
      style="fill: #010101; stroke: #010101; stroke-miterlimit: 10; stroke-width: .3px;" />
    <path
      d="M52.43,248.76c-.84-.02-1.35-.55-1.52-1.19-6.28-4.91-15.55-11.87-22.5-17.45l18.95,16.86,8.25,4.85c.11-.07,.24-.12,.37-.16-.92-.79-2.13-1.77-3.55-2.9Z"
      style="fill: #010101; stroke: #010101; stroke-miterlimit: 10; stroke-width: .3px;" />
    <path d="M45.26,222.91c-2.66-2.99-4.49-5.59-4.79-7.32-.24,1.27,.28,3.74,4.79,7.32Z"
      style="fill: #010101; stroke: #010101; stroke-miterlimit: 10; stroke-width: .3px;" />
    <path
      d="M71.64,245.69l-12.92-15c-6.47-3-10.71-5.6-13.46-7.78,7.08,7.95,20.08,18.71,26.02,23.5,.07-.19,.17-.37,.3-.52,.02-.07,.03-.14,.06-.2Z"
      style="fill: #010101; stroke: #010101; stroke-miterlimit: 10; stroke-width: .3px;" />
    <polyline points="130.89 264.47 138.08 259 162.47 259"
      style="fill: #010101; stroke: #010101; stroke-miterlimit: 10; stroke-width: .3px;" />
    <ellipse cx="79.95" cy="230.69" rx="1.01" ry="3.08"
      style="fill: #010101; stroke: #010101; stroke-miterlimit: 10; stroke-width: .3px;" />
    <path
      d="M79.58,246.72c-.9-.7-1.93-1.47-2.54-2.46-.71-1.15-.3-2.01,.07-3.21,.59-1.9,.15-3.88-1.41-5.01-.23-.53-.72-.94-1.47-.94-.93,0-1.45,.62-1.59,1.33-.4,.73-.32,1.66,.64,2.11,1.36,.64,.41,1.84,.13,2.92-.26,1.02-.27,2.04,.05,3.05,.02,.05,.04,.1,.06,.15,.27,.06,.49,.18,.67,.33,.01,0,.03,0,.04,0,1.22,0,1.75,1.08,1.59,2.03,.29,.35,.42,.82,.39,1.28,.32,.28,.66,.55,.99,.81,1.69,1.32,4.08-1.06,2.38-2.4Z"
      style="fill: #010101;" />
    <path
      d="M75.39,250.04s-.04,.02-.06,.03c-.24,.51-.72,.89-1.44,.89-.65,0-1.11-.31-1.37-.74-.03,0-.06,0-.09,0-.72,0-1.19-.37-1.44-.87-4.6-.18-9.2-.18-13.81,0-1.37,.05-1.87,1.44-1.5,2.43,.22-.11,.48-.18,.78-.18,.28,0,.52,.06,.72,.16,.21-.1,.45-.16,.73-.16,.82,0,1.32,.48,1.52,1.08,4.93-.13,9.87-.06,14.8,.23,1.66,.1,2.04-1.88,1.15-2.86Z"
      style="fill: #010101;" />
    <path
      d="M87.31,274.06c-.59,0-1.01-.25-1.28-.61-.24,.15-.54,.25-.9,.25-.33,0-.6-.08-.83-.21-.53,.85-1.13,1.67-1.81,2.44-.39,.45-.5,.95-.42,1.41,.16-.05,.33-.08,.52-.08,1.01,0,1.55,.74,1.62,1.53,.13-.05,.25-.11,.38-.2-.73-.98-.31-2.79,1.27-2.79,.32,0,.58,.07,.81,.2,.44-.65,.85-1.33,1.22-2.03-.17,.06-.36,.09-.57,.09Z"
      style="fill: #010101;" />
    <path
      d="M86.39,268.7c-.17,.59-.36,1.17-.58,1.73,.25,.11,.45,.28,.6,.48,.24-.16,.54-.25,.9-.25,.86,0,1.38,.54,1.56,1.19,.29-.73,.55-1.48,.77-2.25,.59-2.11-2.65-3-3.24-.9Z"
      style="fill: #010101;" />
    <g>
      <line x1="119.67" y1="270.31" x2="145.03" y2="282.62" style="fill: #010101;" />
      <polygon points="119.74 270.17 145.03 282.62 119.61 270.44 119.74 270.17 119.74 270.17"
        style="fill: #010101;" />
    </g>
    <ellipse cx="55.57" cy="212.87" rx=".36" ry="8.79"
      transform="translate(-159.14 164.85) rotate(-62.76)" style="fill: #010101;" />
    <path id="frammento"
      d="M96.78,287.25s-.03,0-.04,0c-.95,0-1.48-.65-1.6-1.38-.04,0-.08,0-.13,0-1.59,0-2.88,.78-2.88,1.74s1.29,1.74,2.88,1.74,2.87-.78,2.87-1.74c-.02,0-.04,0-.06,0-.44,0-.78-.15-1.05-.37Z"
      style="fill: #010101;" />
    <animate id="frammento_opacity_1" attributeName="opacity"
      begin="4;pomello_interno_rotazione_90.end"
      values="0;1" dur="7s"
    />
    <animate id="frammento_opacity_freeze" attributeName="opacity"
      begin="frammento_opacity_1.end"
      values="1" dur="17s"
    />
    <animate id="frammento_opacity_0" attributeName="opacity"
      begin="frammento_opacity_freeze.end"
      values="1;0" dur="3s"
    />
  </g>
  <line x1="43.04" y1="269.34" x2="17.22" y2="277.37"
    style="fill: none; stroke: #010101; stroke-miterlimit: 10; stroke-width: .32px;" />
  <path d="M9.8,220.18c4.2,6.19,8.93,11.88,13.79,17.38l14.13,11.46-27.92-28.83Z"
    style="fill: #010101; stroke: #010101; stroke-miterlimit: 10; stroke-width: .32px;" />
  <path
    d="M32.17,209.36c-.3,.67-.56,1.38-.78,2.11-.12,.42-.33,.73-.58,.95,.98,8.89,10.46,25.35,10.46,25.35l-9.1-28.42Z"
    style="fill: #010101; stroke: #010101; stroke-miterlimit: 10; stroke-width: .32px;" />
  <path d="M53.87,181.21l-46.12,.85v104.12c0,.11,0,.21,0,.32l46.12,.05v-105.34Z"
    style="fill: #3d64ad; filter: url(#drop-shadow-3);" />
  <path
    d="M251.87,286.18v-105.5c0-1.06-.01-2.1-.04-3.13l-45.9,.85v108.33l45.93,.05c0-.2,0-.4,0-.61Z"
    style="fill: #3d64ad; filter: url(#drop-shadow-4);" />
  <path
    d="M260.48,177.55c-.37-16.49-3.73-27.88-10.09-34.19-6.75-6.69-19.75-10.04-39-10.04H65.51c-19.25,0-32.25,3.35-39,10.04-6.75,6.69-10.12,19.13-10.12,37.31v1.38l46.12-.85v-12.09H214.58v9.28l45.9-.85ZM54.36,134.02h0Z"
    style="fill: #3d64ad; filter: url(#drop-shadow-5);" />
  <path
    d="M208.82,287.7v9.11H56.75v-9.29l-46.12-.05c.04,18.14,3.41,30.5,10.12,37.09,6.75,6.63,19.75,9.94,39,9.94H205.63c19.25,0,32.25-3.31,39-9.94s10.04-18.83,10.12-36.8l-45.93-.05Z"
    style="fill: #3d64ad; filter: url(#drop-shadow-6);" />
  <g id="pomello_griglia">
    <ellipse cx="229.14" cy="202.68" rx="8.1" ry="8.18" style="fill: #f39323;" />
    <g id="pomello_sup">
      <ellipse cx="229.14" cy="202.68" rx="3.24" ry="3.27" style="fill: #3d64ad;" />
      <ellipse cx="229.14" cy="202.68" rx="3.08" ry="3.11" style="fill: #010101;" />
      <rect x="228.06" y="199.41" width="2.16" height="6.55" style="fill: #fff;" />
      <animateTransform id="pomello_interno_rotazione_90" attributeName="transform"
        attributeType="XML" type="rotate"
        from="0 229.14 202.68" begin="0;pomello_interno_rotazione_0_freeze.end+10"
        to="90 229.14 202.68" dur="4s" />
      <animateTransform id="pomello_interno_rotazione_90_freeze" attributeName="transform"
        attributeType="XML" type="rotate"
        values="90 229.14 202.68" begin="pomello_interno_rotazione_90.end"
        dur="7s" />
      <animateTransform id="pomello_interno_rotazione_0" attributeName="transform"
        attributeType="XML" type="rotate"
        from="90 229.14 202.68" begin="pomello_interno_rotazione_90_freeze.end"
        to="0 229.14 202.68" dur="4s" />
      <animateTransform id="pomello_interno_rotazione_0_freeze" attributeName="transform"
        attributeType="XML" type="rotate"
        values="0 229.14 202.68" begin="pomello_interno_rotazione_0.end"
        dur="7s" />
    </g>

    <ellipse cx="229.14" cy="221.9" rx="8.1" ry="8.18" style="fill: #f39323;" />
    <g id="pomello_inf">
      <ellipse cx="229.14" cy="221.9" rx="3.24" ry="3.27" style="fill: #3d64ad;" />
      <ellipse cx="229.14" cy="221.9" rx="3.08" ry="3.11" style="fill: #010101;" />
      <rect x="228.06" y="218.63" width="2.16" height="6.55" style="fill: #fff;" />
      <animateTransform id="pomello_interno_rotazione_90" attributeName="transform"
        attributeType="XML" type="rotate"
        from="0 229.14 221.9" begin="0;pomello_interno_rotazione_0_freeze.end+10"
        to="-90 229.14 221.9" dur="4s" />
      <animateTransform id="pomello_interno_rotazione_90_freeze" attributeName="transform"
        attributeType="XML" type="rotate"
        values="-90 229.14 221.9" begin="pomello_interno_rotazione_90.end"
        dur="7s" />
      <animateTransform id="pomello_interno_rotazione_0" attributeName="transform"
        attributeType="XML" type="rotate"
        from="-90 229.14 221.9" begin="pomello_interno_rotazione_90_freeze.end"
        to="0 229.14 221.9" dur="4s" />
      <animateTransform id="pomello_interno_rotazione_0_freeze" attributeName="transform"
        attributeType="XML" type="rotate"
        values="0 229.14 221.9" begin="pomello_interno_rotazione_0.end"
        dur="7s" />
    </g>

    <rect x="211.45" y="238.56" width="35.37" height="43.64" style="fill: #f39323;" />
    <g>
      <rect x="211.32" y="254.83" width="35.52" height=".62" style="fill: #010101;" />
      <rect x="211.32" y="256.95" width="35.52" height=".62" style="fill: #010101;" />
      <rect x="211.32" y="259.07" width="35.52" height=".62" style="fill: #010101;" />
      <rect x="211.32" y="261.19" width="35.52" height=".62" style="fill: #010101;" />
      <rect x="211.32" y="263.31" width="35.52" height=".62" style="fill: #010101;" />
      <rect x="211.32" y="265.44" width="35.52" height=".62" style="fill: #010101;" />
      <rect x="211.32" y="267.56" width="35.52" height=".62" style="fill: #010101;" />
      <rect x="211.32" y="269.68" width="35.52" height=".62" style="fill: #010101;" />
      <rect x="211.32" y="252.71" width="35.52" height=".62" style="fill: #010101;" />
      <rect x="211.32" y="271.8" width="35.52" height=".62" style="fill: #010101;" />
    </g>
  </g>
  <g>
    <path d="M102.25,233.03s-.08,.03-.13,.04c.01,0,.02,0,.04,0,.03-.01,.06-.02,.09-.03Z"
      style="fill: #fff;" />
    <path
      d="M101.94,233.23c.07-.08,.15-.13,.25-.15,.05-.01,.1-.04,.15-.06,.02,0,.03-.02,.03-.03,0-.03-.03-.02-.05-.02-.06,0-.11,.04-.17,.06-.03,.01-.07,.03-.1,0-.02-.03,0-.06,.01-.09,0,0,0-.01,0-.02,.07-.15,.18-.27,.32-.36,.15-.09,.31-.16,.46-.25,.02-.07-.03-.02-.05-.04-.02,.01-.04,.03-.06,.03-.17,.07-.32,.17-.48,.27-.19,.11-.28,.28-.36,.47,0,.02,.02,.04,.04,.05,.03,.03,0,.04-.03,.05-.05,.02-.07,.05-.05,.1,.04,.06,.06,.02,.08-.02Z"
      style="fill: #fff;" />
    <path
      d="M102.46,233.38s.03,0,.04,0c.02,0,.04-.02,.06-.02,.02,0,.03-.01,.04-.03,.02-.01,.04-.02,.06-.02,.08-.03,.15-.06,.23-.09,.08-.03,.14-.08,.2-.14,0,0,.02-.02,0-.03-.01-.01-.03,0-.04,0-.03,.05-.08,.07-.13,.09-.05,.02-.11,.04-.16,.06-.11,.05-.23,.08-.36,.09-.01,0-.02,0-.03,0-.01,0-.03,0-.04,0-.02,0-.03,0-.04,.02-.01,0-.02,0-.04,0-.02,0-.03,0-.05,.01-.02,0-.05,0-.06,.03,0,.01,0,.02,.01,.03,.01,0,.03,.01,.04,.01,.04,0,.08,0,.12,0,.02,0,.05,0,.07,0,.02,0,.04-.01,.07-.02Z"
      style="fill: #fff;" />
    <path d="M102.9,232.3s0,0,0,0c0,0,0,0,0,0,0,0,0,0,0,0,0,0,0-.01,0-.01Z" style="fill: #fff;" />
    <path
      d="M102.61,233.35s.01,0,.02,0c0-.01-.01-.01-.02-.01-.02,0-.04,0-.05,0,0,.01-.01,.03,.02,.03,.01,0,.03,0,.04,0Z"
      style="fill: #fff;" />
    <path
      d="M102.21,233.33s0,0,0,0c0,0,0,0,0,0-.07,0-.13-.02-.2-.02-.03,0-.06-.01-.06-.05-.02,.02-.05,.05-.06,0-.03,.03-.04,.05,0,.07,.06,.02,.12,.04,.19,.05,.02,.02,.05,.01,.07,0,.02,0,.05,0,.06-.02Z"
      style="fill: #fff;" />
    <path d="M102.21,233.31s0,0,0,.01c.01,0,.03,0,.04-.01-.01,0-.03-.05-.04,0Z" style="fill: #fff;" />
    <path
      d="M101.85,232.5c.07-.04,.12-.11,.19-.15,.01,0,.02-.01,.04-.01,0,0,.01,0,.02,0,0,0,.01,0,.02,.01,.01,0,.02,.01,.03,.01,.04-.01,.04-.05,.05-.08-.05-.03-.12-.02-.17-.06-.02,.03-.06,.06-.09,.08h0s-.01,.01-.02,.02h0s-.01,.01-.02,.01c0,0,0,0-.01,0-.01,0-.02,0-.03,.02h0s-.04,.02-.05,.03c-.05,.04-.05,.07,0,.11,0,0,.02,0,.03,0,0,0,.02,0,.03,0Z"
      style="fill: #fff;" />
    <path
      d="M102.15,232.47s.02-.01,.02-.02c0,0,0,0,0,0,.01-.02,.03-.05,.04-.07,.02-.04,.02-.07-.02-.1-.03,.01-.03,.05-.05,.08-.07,.02-.1,.07-.09,.14,.01,.02,.03,.03,.05,.01,.02-.01,.04-.03,.05-.04Z"
      style="fill: #fff;" />
    <path
      d="M101.97,233.06s-.03,.01-.04,0c-.04,.05-.09,.09-.13,.14-.01,.02-.01,.04,.02,.03,.06-.05,.12-.1,.16-.17Z"
      style="fill: #fff;" />
    <path d="M102.15,233.37s0-.01,0-.02c-.02,0-.05,0-.07,0,.02,.05,.05,.01,.08,.02Z"
      style="fill: #fff;" />
    <path d="M102.4,233.37s.04,0,.06-.02c-.02,0-.04,0-.06,.02Z" style="fill: #fff;" />
    <path d="M102.34,233.31s.02,.01,.04,0c-.01,0-.02,0-.04,0Z" style="fill: #fff;" />
    <path
      d="M101.85,232.35s-.05,.01-.08,.02h0s0,.02,0,.02c.01,0,.03,0,.04,0,.01-.01,.03-.03,.04-.04Z"
      style="fill: #fff;" />
    <path d="M101.88,232.34s-.02,.01-.03,.02c0,0,.02-.01,.03-.02Z" style="fill: #fff;" />
    <path d="M101.91,232.32s-.01,0-.02,.01c0,0,.01,0,.02-.01Z" style="fill: #fff;" />
    <path d="M101.93,232.3s-.01,.01-.02,.02c0,0,.01-.01,.02-.02Z" style="fill: #fff;" />
    <path
      d="M101.73,233.29h0s.06-.03,.08-.06c-.01,0-.02-.02-.02-.04-.11,.07-.17,.07-.26-.02-.03-.03-.05-.05-.08-.08-.01,0-.03,0-.04,0,.02,.08,.09,.12,.16,.17,.04,.03,.09,.05,.15,.03,0,0,.01,0,.02,0Z"
      style="fill: #fff;" />
    <path d="M102.49,233.39s-.03,0-.04,0c0,.01,0,.02,.02,.02,.01,0,.02-.01,.02-.02Z"
      style="fill: #fff;" />
    <path
      d="M101.5,232.99c.08-.06,.16-.12,.24-.18,.13-.09,.25-.19,.36-.31-.02,0-.03,0-.04-.02-.04-.03-.07,0-.1,.03-.07,.06-.14,.11-.2,.17-.13,.1-.27,.19-.38,.32,0,.04,.02,.08,.07,.08,0-.04,.03-.06,.06-.08Z"
      style="fill: #fff;" />
    <path
      d="M101.22,233.16s.05-.03,.07-.05c.02-.02,.03-.04,.06-.03,.02,0,.05,0,.07,.02h0s.03,.01,.04,0c0,0,0-.01,0-.02-.02-.02-.03-.06-.06-.07,0-.01,0-.02,0-.04-.02-.02-.04-.03-.07-.03-.07,.02-.09,.09-.15,.12-.03,.02-.05,.05-.04,.08,.02,.05,.05,.07,.09,.02Z"
      style="fill: #fff;" />
    <path d="M102.15,232.47s.01-.01,.02-.02c0,0-.01,.01-.02,.02Z" style="fill: #fff;" />
    <path
      d="M101.49,232.83c.11-.11,.23-.22,.33-.35-.04-.03-.03-.06,0-.09-.01,0-.02,0-.04,0-.03,0-.05,.03-.07,.04-.01,0-.02,.02-.02,.03,0,.08-.07,.1-.1,.16-.05,.08-.15,.12-.18,.22,.04,.07,.06-.02,.09-.01Z"
      style="fill: #fff;" />
    <path d="M102.02,232.32s.07-.01,.1-.02c-.04-.03-.07-.02-.1,.02Z" style="fill: #fff;" />
    <path d="M101.83,232.47s-.01,.01-.02,.02c0,0,.01-.01,.02-.02Z" style="fill: #fff;" />
    <path d="M102.12,232.3s.01,.01,.02,.02c0-.01,0-.02-.02-.02Z" style="fill: #fff;" />
    <polygon points="100.41 233.8 100.42 233.8 100.42 233.8 100.41 233.8" style="fill: #fff;" />
    <path
      d="M100.47,233.8s.01,0,.02,0c.02-.01,.05-.02,.06-.04,.03-.04,.07-.06,.11-.09,.12-.09,.23-.19,.33-.3,.02-.02,.02-.04,0-.06,0,0-.02,0-.03,0,0,0-.02,0-.02,.01-.08,.08-.17,.15-.25,.23-.03,.03-.07,.07-.11,.08-.05,.02-.05,.12-.14,.09-.01,0-.02,.01-.03,.02-.02,0-.02,.02-.01,.03,0,.01,.02,.02,.03,.02,0,0,0,0,0,0h0s0,0,0,0c.02,.02,.04,.01,.05,0Z"
      style="fill: #fff;" />
    <path
      d="M101.57,232.66s0-.02,0-.03c-.02-.04-.04-.03-.07,0-.01,.04-.04,.05-.08,.07-.04,.05-.1,.08-.13,.13-.03,.08-.1,.11-.15,.17-.02,.02-.06,.04,0,.07,.02,0,.03-.01,.05-.03,.13-.12,.24-.26,.37-.38Z"
      style="fill: #fff;" />
    <path
      d="M101.14,233.06s.01-.04,.02-.05c.04-.04,.08-.08,.12-.12,.02-.02,.03-.03,.01-.06h0s-.01,.01-.02,.02c-.09,.09-.17,.18-.26,.27,0,0,0,.01-.01,.01h0s0,.02,0,.02c0,0,0,.01-.01,.02h0s-.06,.06-.09,.1c-.02,.02-.06,.04-.03,.08,.14-.05,.21-.16,.27-.29Z"
      style="fill: #fff;" />
    <path
      d="M100.87,233.34s.04-.06,.06-.09c.02-.02,.05-.05,.05-.08-.1,.09-.2,.18-.28,.29,0,.02,0,.04,.03,.04,.06-.05,.13-.07,.14-.16Z"
      style="fill: #fff;" />
    <path
      d="M100.59,233.65s0-.02,0-.02c0-.01-.01-.02-.03-.03-.06,.02-.08,.08-.13,.11,0,0,0,0,0,.01,.02,.06,.02,.06,.06,.03,.04-.03,.05-.08,.09-.1Z"
      style="fill: #fff;" />
    <path
      d="M100.68,233.56s.02-.02,.03-.04c0,0,0-.01,0-.02,0,0,0,0,0-.01,0-.01,0-.03-.02-.04h0s-.01,.01-.02,.02h0s-.01,.01-.02,.02c-.02,.02-.04,.04-.06,.06-.02,.02-.05,.02-.04,.06,0,0,.02,.02,.02,.02,.04,0,.06-.05,.09-.07Z"
      style="fill: #fff;" />
    <path
      d="M100.61,233.55s-.06,0-.08,.03c-.02,.05-.07,.08-.09,.13,.05-.02,.08-.07,.13-.1,.01-.02,.03-.04,.04-.06Z"
      style="fill: #fff;" />
    <path
      d="M101.51,232.64s0,0,0,0c0,0,0,0,0,0,0,.01-.02,.02-.04,.02,0,.01-.01,.02-.02,.04,.05,.01,.07-.01,.08-.06Z"
      style="fill: #fff;" />
    <path
      d="M101.78,232.4s0-.02,0-.02c-.02,.01-.04,.03-.06,.04-.01,.01-.01,.02,0,.04,.02-.01,.04-.03,.06-.05Z"
      style="fill: #fff;" />
    <path d="M100.55,233.76s-.04,.02-.06,.04c0,0,.02,0,.02,0,.02,0,.04-.02,.04-.04Z"
      style="fill: #fff;" />
    <path d="M100.4,233.79s0,0,0-.02c0-.01,0-.02,0-.03-.05,.01-.04,.03,0,.06,0,0,0,0,0,0Z"
      style="fill: #fff;" />
    <path d="M100.41,233.8s.03,.02,.05,0c-.02,0-.04,0-.05,0Z" style="fill: #fff;" />
    <path d="M100.4,233.78s0,.01,0,.02c0,0,.01,0,.02,0,0,0-.01-.01-.02-.02Z" style="fill: #fff;" />
    <path d="M100.68,233.48s-.01,.01-.02,.02c0,0,.01-.01,.02-.02Z" style="fill: #fff;" />
    <path d="M100.7,233.46s-.01,.01-.02,.02c0,0,.01-.01,.02-.02Z" style="fill: #fff;" />
    <path d="M101,233.15h0s0,.02,0,.03c0,0,.01-.02,.02-.02h0Z" style="fill: #fff;" />
    <path d="M101.01,233.13s-.01,.01-.02,.02c0,0,.01,0,.02,0,0,0,0,0,0-.01Z" style="fill: #fff;" />
    <path d="M101.02,233.12s0,0-.01,.01c0,0,0,0,.01-.01Z" style="fill: #fff;" />
    <path d="M101.3,232.83s-.01,.01-.02,.02c0,0,.01-.01,.02-.02Z" style="fill: #fff;" />
    <path
      d="M101.16,233.19s.05-.02,.07-.02c.06-.01,.11-.08,.18-.07,0-.03-.03-.04-.06-.06-.03,0-.05,.03-.08,.04-.02,.02-.04,.04-.06,.06-.03,.04-.05,.02-.07,0-.07,0-.09,.06-.12,.11,.02,.05,.04,.02,.06,0,.03-.02,.05-.05,.08-.06Z"
      style="fill: #fff;" />
    <path
      d="M101.16,233.19s-.05,0-.07,.02c-.02,.01-.03,.05-.06,.03-.04,0-.06,.02-.06,.06,.02,.02,.02,.04,.02,.06,.06-.05,.12-.11,.17-.17Z"
      style="fill: #fff;" />
    <path d="M101.73,233.29s-.01,0-.02,0c0,0,.01,0,.02,0Z" style="fill: #fff;" />
    <path
      d="M101.45,232.84s-.02,.02-.04,.01c-.03,.03-.05,.06-.08,.08,0,.03,.02,.04,.04,.05,.04-.05,.08-.1,.11-.15-.01-.02-.03,0-.04,0Z"
      style="fill: #fff;" />
    <path d="M101.35,233.04s-.06,.02-.08,.04c.04,.02,.06,0,.08-.04Z" style="fill: #fff;" />
    <polygon points="101.58 232.54 101.58 232.55 101.58 232.55 101.58 232.54" style="fill: #fff;" />
    <path
      d="M101.6,232.64s.06-.06,.09-.09c.02-.02,.02-.05,0-.08,0-.01-.01-.01-.02,0-.02,.03-.04,.05-.07,.05-.01,0-.02,.01-.02,.02,0,0,0,0,0,0h0s0,0,0,0c0,0-.01,.01-.02,.02,0,.01-.02,.02-.04,.02-.03,0-.04,.02-.03,.05,0,0,0,0,0,0,.02,0,.04-.01,.06,0,.01,0,.03-.02,.04,0Z"
      style="fill: #fff;" />
    <path
      d="M101.72,232.45s0-.02,0-.04c-.02,.02-.03,.04-.04,.06,0,0,.01,0,.02,0,0,0,.01-.02,.02-.02Z"
      style="fill: #fff;" />
    <path d="M101.53,232.59s-.05,.02-.04,.05c0,0,.01,0,.02,0,0-.02,.02-.03,.03-.05Z"
      style="fill: #fff;" />
    <path d="M101.58,232.54s-.01,.01-.02,.02c0,0,.01-.01,.02-.02Z" style="fill: #fff;" />
    <path d="M101.61,232.53s-.02,.01-.03,.02c0,0,.02-.01,.03-.02Z" style="fill: #fff;" />
    <path
      d="M100.7,233.57s-.01-.01-.02-.02c-.03,.03-.06,.06-.09,.08,0,0,0,0,0,.01,.05,0,.08-.05,.11-.08Z"
      style="fill: #fff;" />
    <path d="M100.95,233.32s.01-.01,.02-.02c0,0-.01,.01-.02,.02Z" style="fill: #fff;" />
    <path d="M100.72,233.49s-.01,.01-.02,.02c0,0,.01-.01,.02-.02Z" style="fill: #fff;" />
  </g>
</svg>