<?xml version="1.0" encoding="UTF-8"?>
<svg id="sidt_logo" xmlns="http://www.w3.org/2000/svg" viewBox="-25.5 -24 400 400">
  <rect x="-25.5" y="-24" width="400" height="400" style="fill: #fff;" />
  <g>
    <g id="testo_SIDT">
      <path
        d="M245.16,168.77c0-14.78,0-29.56,0-44.34,0-3.62,2.02-6.27,5.35-7.09,.54-.13,1.08-.15,1.63-.15,5.95,0,11.91-.03,17.86,0,11.43,.06,21.57,8.86,23.28,20.17,.25,1.62,.38,3.25,.38,4.9,0,17.93,0,35.85-.01,53.78,0,5.69-1.69,10.86-5.27,15.32-4.76,5.93-11,9.01-18.59,9.15-5.71,.11-11.43,.02-17.14,.02-4.55,0-7.49-2.95-7.49-7.54,0-11.87,0-23.74,0-35.61,0-2.87,0-5.75,0-8.62Zm13.61,0c0,12.21,.01,24.41-.02,36.62,0,1.03,.29,1.37,1.33,1.34,2.6-.07,5.2-.01,7.8-.03,1.13,0,2.26,.09,3.38-.11,5.24-.95,8.77-5.2,8.78-10.57,0-16.34,0-32.69,0-49.03,0-2.09,.04-4.17-.02-6.26-.13-5.05-4.33-9.48-9.36-9.94-3.41-.31-6.83-.08-10.25-.14-1.64-.03-1.64,0-1.64,1.59,0,12.17,0,24.35,0,36.52Z" />
      <path
        d="M151.31,194.17c0-1.87-.02-3.38,0-4.88,.03-1.84,1.14-3.15,2.97-3.33,2.56-.26,5.13-.25,7.68,.01,1.65,.17,2.78,1.52,2.81,3.26,.03,2.22,0,4.45,.02,6.67,.04,5.13,2.91,9.15,7.52,10.59,6.58,2.05,13.33-2.84,13.57-9.72,.07-2.09-.44-3.76-1.74-5.46-9.89-12.97-19.7-26.01-29.52-39.05-1.44-1.91-2.88-3.84-3.19-6.34-1.97-15.77,8.01-26.65,20.39-28.67,13.02-2.12,25.92,7.64,27.44,20.73,.41,3.51,.18,7.04,.16,10.56,0,1.68-1.46,3-3.17,3.03-2.36,.04-4.72,.04-7.08,0-1.69-.03-2.89-1.08-3.18-2.78-.29-1.66-.07-3.35-.13-5.02-.06-1.74,.14-3.49-.26-5.21-1.17-5-5.85-8.29-11.34-7.93-4.65,.3-8.84,4.44-9.32,9.21-.03,.34-.1,.68-.13,1.02-.12,1.72,.19,3.22,1.3,4.68,9.76,12.82,19.46,25.68,29.15,38.55,4.62,6.14,4.58,6.19,4.07,14.25-.53,8.38-4.83,14.85-12.14,18.99-14.55,8.24-32.65-.41-35.6-16.89-.4-2.21-.26-4.43-.28-6.29Z" />
      <path
        d="M214.54,173.8c0-14.3,0-28.6,.02-42.89,0-1-.26-1.5-1.24-1.89-8.19-3.28-13.29-11.02-13.4-19.84-.13-10.26,7.77-20.06,19.17-21.29,11.71-1.27,22.37,7.53,23.5,19.25,.9,9.43-4.6,18.43-13.33,21.88-.97,.38-1.14,.94-1.14,1.86,.02,28.15,0,56.3,.03,84.46,0,3.53-.9,5.49-5.21,5.22-1.53-.1-3.08,0-4.62-.02-2.48-.02-3.78-1.34-3.78-3.84,0-14.3,0-28.6,0-42.89Zm6.76-54.11c5.86,0,10.5-4.62,10.51-10.47,0-5.86-4.7-10.6-10.53-10.6-5.81,0-10.55,4.78-10.54,10.63,.01,5.78,4.73,10.44,10.56,10.44Z"
        style="fill: #7d3e3f;">
        <animate id="testo_Sidt_I" attributeName="d"
          begin="logo_rotate_1.end-5;logo_rotate_2.end-5"
          dur="5s"
          values="M214.54,173.8c0-14.3,0-28.6,.02-42.89,0-1-.26-1.5-1.24-1.89-8.19-3.28-13.29-11.02-13.4-19.84-.13-10.26,7.77-20.06,19.17-21.29,11.71-1.27,22.37,7.53,23.5,19.25,.9,9.43-4.6,18.43-13.33,21.88-.97,.38-1.14,.94-1.14,1.86,.02,28.15,0,56.3,.03,84.46,0,3.53-.9,5.49-5.21,5.22-1.53-.1-3.08,0-4.62-.02-2.48-.02-3.78-1.34-3.78-3.84,0-14.3,0-28.6,0-42.89Zm6.76-54.11c5.86,0,10.5-4.62,10.51-10.47,0-5.86-4.7-10.6-10.53-10.6-5.81,0-10.55,4.78-10.54,10.63,.01,5.78,4.73,10.44,10.56,10.44Z;M211.29,151.35c0-21.16-.01-42.32,.03-63.48,0-1.47-.39-2.22-1.83-2.8-12.13-4.85-19.66-16.3-19.83-29.36-.19-15.18,11.49-29.69,28.37-31.51,17.33-1.87,33.11,11.15,34.77,28.5,1.34,13.95-6.81,27.28-19.73,32.38-1.43,.57-1.69,1.39-1.69,2.75,.03,41.66,0,83.33,.05,124.99,0,5.22-1.33,8.12-7.71,7.72-2.27-.14-4.55,0-6.83-.03-3.67-.03-5.6-1.98-5.6-5.68,0-21.16,0-42.32,0-63.48Zm10.01-80.08c8.68,0,15.54-6.83,15.55-15.49,.01-8.68-6.95-15.69-15.59-15.69-8.6,0-15.62,7.07-15.6,15.73,.02,8.56,7,15.46,15.63,15.45Z;M214.54,173.8c0-14.3,0-28.6,.02-42.89,0-1-.26-1.5-1.24-1.89-8.19-3.28-13.29-11.02-13.4-19.84-.13-10.26,7.77-20.06,19.17-21.29,11.71-1.27,22.37,7.53,23.5,19.25,.9,9.43-4.6,18.43-13.33,21.88-.97,.38-1.14,.94-1.14,1.86,.02,28.15,0,56.3,.03,84.46,0,3.53-.9,5.49-5.21,5.22-1.53-.1-3.08,0-4.62-.02-2.48-.02-3.78-1.34-3.78-3.84,0-14.3,0-28.6,0-42.89Zm6.76-54.11c5.86,0,10.5-4.62,10.51-10.47,0-5.86-4.7-10.6-10.53-10.6-5.81,0-10.55,4.78-10.54,10.63,.01,5.78,4.73,10.44,10.56,10.44Z"
        />
      </path>
      <path
        d="M315.13,174.42c0-14.09,0-28.18,0-42.28q0-1.48-1.44-1.48c-2.57,0-5.13,.01-7.7,0-2.22-.02-3.57-1.37-3.59-3.59-.02-2.09-.02-4.17,0-6.26,.02-2.23,1.37-3.61,3.59-3.61,10.6-.01,21.21-.01,31.81,0,2.17,0,3.54,1.27,3.63,3.47,.09,2.15,.09,4.31,0,6.46-.09,2.31-1.45,3.52-3.78,3.52-2.5,0-4.99,0-7.49,0-1.43,0-1.43,0-1.43,1.4,0,7.05,0,14.09,0,21.14,0,20.9,0,41.8,0,62.69,0,.48,.01,.96-.06,1.43-.29,1.94-1.69,3.18-3.65,3.2-1.98,.02-3.97,.01-5.95,0-2.51-.01-3.95-1.44-3.95-3.95,0-14.06,0-28.11,0-42.17Z" />
    </g>
    <g>
      <path
        d="M73.2,182.34c-5.5-.14-10.38-1.83-14.58-5.35-1.28-1.08-1.3-1.08-2.69-.27-10.69,6.17-21.4,12.31-32.05,18.55-2.76,1.62-4.17,1.4-5.57-1.43-.79-1.59-1.78-3.08-2.66-4.62-1.04-1.83-.73-3.05,1.1-4.11,7.63-4.42,15.28-8.83,22.92-13.24,3.58-2.07,7.16-4.15,10.76-6.19,.63-.36,.71-.74,.58-1.41-1.47-7.89,.49-14.83,6.11-20.56,8.31-8.48,21.68-9,30.71-1.28,.87,.74,1.48,.83,2.48,.24,10.73-6.25,21.48-12.44,32.23-18.65,.24-.14,.47-.28,.71-.41,2.07-1.15,3.2-.85,4.4,1.19,1.01,1.71,2,3.43,2.99,5.14,1.14,1.98,.84,3.17-1.16,4.33-8.08,4.68-16.17,9.34-24.25,14-3.05,1.76-6.09,3.54-9.16,5.27-.68,.38-.85,.76-.71,1.54,1.49,8.1-.64,15.13-6.52,20.9-4.32,4.24-9.65,6.21-15.63,6.36Zm-.07-11.55c6.24,0,11.25-4.89,11.21-11.19-.05-6.62-5.4-11.13-11.08-11.12-6.23,0-11.28,4.97-11.3,11.15-.01,6.14,5.01,11.16,11.17,11.16Z"
        style="fill: #7d3e3f;">
        <animateTransform id="logo_rotate_1" attributeName="transform" attributeType="XML"
          type="rotate"
          begin="4;logo_rotate_2.end+4" from="0 73.1671 159.6369" to="360 73.1671 159.6369" dur="17s" />
          <animateTransform id="logo_rotate_2" attributeName="transform" attributeType="XML"
          type="rotate"
          begin="logo_rotate_1.end+4" from="0 73.1671 159.6369" to="360 73.1671 159.6369" dur="17s" />
      </path>
      <g>
        <path
          d="M79.34,113.76c0,5.23,0,10.46,0,15.7,0,1.32-.03,1.36-1.33,1.14-3.23-.55-6.46-.54-9.69,0-1.3,.22-1.33,.19-1.33-1.14,0-10.43,0-20.86,0-31.29,0-2.15,.93-3.09,3.04-3.1,2.05-.01,4.1,0,6.16,0,2.25,0,3.14,.92,3.14,3.21,0,5.16,0,10.33,0,15.49Z"
          style="fill: #6e878b;" />
        <path
          d="M79.34,205.55c0,5.13,0,10.26,0,15.39,0,2.41-.87,3.27-3.28,3.28-2.05,0-4.1,.01-6.16,0-1.93-.02-2.9-.98-2.9-2.93,0-10.53,0-21.07-.02-31.6,0-.91,.22-1.21,1.17-1.04,3.32,.61,6.66,.59,9.99,.02,1.14-.19,1.19-.15,1.19,1.08,0,5.27,0,10.53,0,15.8Z"
          style="fill: #6e878b;" />
        <path
          d="M45.29,217.67c-.51,.04-1.02-.16-1.5-.43-1.98-1.14-3.98-2.26-5.95-3.44-1.48-.88-1.79-2.17-.93-3.68,3.02-5.24,6.05-10.48,9.08-15.71,2.26-3.91,4.51-7.82,6.76-11.72,.63-1.09,.69-1.11,1.65-.32,2.58,2.13,5.43,3.81,8.59,4.92,.95,.33,.93,.73,.49,1.48-3.59,6.17-7.16,12.36-10.73,18.55-1.69,2.93-3.39,5.85-5.08,8.79-.53,.92-1.18,1.59-2.38,1.57Z"
          style="fill: #6e878b;" />
        <path
          d="M109.89,107.67c-.06,.67-.3,1.19-.59,1.7-5.25,9.08-10.5,18.17-15.74,27.26-.62,1.08-.7,1.09-1.65,.29-2.57-2.15-5.43-3.8-8.58-4.93-.84-.3-.96-.63-.52-1.4,5.33-9.19,10.64-18.4,15.97-27.6,.82-1.41,2.14-1.82,3.59-1.02,2.1,1.15,4.16,2.37,6.22,3.57,.84,.49,1.21,1.26,1.3,2.12Z"
          style="fill: #6e878b;" />
        <path
          d="M101.02,217.67c-1.11,.01-1.78-.55-2.27-1.41-4.92-8.53-9.84-17.05-14.76-25.57-.43-.74-.85-1.48-1.29-2.21-.31-.52-.28-.86,.36-1.08,3.36-1.18,6.39-2.94,9.1-5.24,.68-.58,.98-.23,1.31,.36,4.18,7.26,8.36,14.51,12.54,21.76,1.13,1.95,2.26,3.9,3.37,5.87,.85,1.51,.55,2.79-.93,3.67-1.94,1.16-3.9,2.26-5.86,3.39-.51,.29-1.04,.52-1.59,.47Z"
          style="fill: #6e878b;" />
        <path
          d="M45.25,101.61c1.17-.04,1.86,.59,2.39,1.52,3.34,5.81,6.69,11.61,10.04,17.41,1.95,3.37,3.88,6.76,5.85,10.12,.43,.73,.32,1.04-.48,1.32-3.19,1.13-6.06,2.82-8.67,4.97-.92,.76-1,.74-1.58-.28-5.26-9.11-10.53-18.23-15.79-27.35-.97-1.69-.64-2.98,1.05-3.96,1.83-1.07,3.67-2.12,5.51-3.18,.54-.31,1.08-.61,1.69-.56Z"
          style="fill: #6e878b;" />
        <path
          d="M21.22,122.96c.65-.03,1.2,.27,1.73,.58,9.18,5.3,18.35,10.6,27.53,15.89,.62,.36,.66,.66,.22,1.17-2.34,2.73-4.13,5.78-5.29,9.18-.28,.82-.68,.53-1.15,.25-4.68-2.7-9.35-5.4-14.03-8.1-4.35-2.51-8.7-5.03-13.06-7.52-2.3-1.32-2.62-2.38-1.3-4.65,1.06-1.83,2.13-3.67,3.18-5.51,.49-.85,1.23-1.24,2.18-1.29Z"
          style="fill: #6e878b;" />
        <path
          d="M125.12,196.31c-.62,.03-1.13-.23-1.64-.52-9.15-5.28-18.29-10.57-27.44-15.83-.76-.44-.87-.77-.28-1.44,2.25-2.58,3.92-5.51,5.06-8.73,.29-.84,.57-.96,1.36-.51,7.74,4.5,15.5,8.97,23.26,13.44,1.48,.85,2.97,1.7,4.43,2.58,1.43,.85,1.79,2.14,.98,3.59-1.17,2.09-2.39,4.14-3.59,6.21-.47,.81-1.21,1.17-2.12,1.21Z"
          style="fill: #6e878b;" />
        <path
          d="M119.14,153.54c5.19,0,10.39,0,15.58,0,2.02,0,2.97,.79,3.05,2.76,.09,2.22,.09,4.44,0,6.66-.08,1.99-1.02,2.78-3.03,2.78-10.42,0-20.85,0-31.27,0-1.41,0-1.42,0-1.22-1.35,.49-3.23,.52-6.47-.05-9.68-.18-.99,.17-1.18,1.05-1.18,5.3,.02,10.59,.01,15.89,.01Z"
          style="fill: #6e878b;" />
        <path
          d="M27.08,153.54c5.26,0,10.53,0,15.79,0,1.4,0,1.42,0,1.21,1.36-.5,3.23-.53,6.47,.06,9.68,.18,1-.19,1.18-1.06,1.17-6.56-.02-13.12,0-19.69,0-3.96,0-7.93,0-11.89,0-1.89,0-2.84-.79-2.92-2.67-.1-2.28-.1-4.58,0-6.87,.08-1.88,1.04-2.66,2.92-2.67,5.2,0,10.39,0,15.59,0Z"
          style="fill: #6e878b;" />
      </g>
    </g>
    <g>
      <path
        d="M264.9,252.87c0-2.5-.01-4.99,0-7.49,0-1.89,.43-2.32,2.29-2.31,1.06,0,2.12-.1,3.17,.16,1.82,.45,3.09,1.54,3.43,3.4,.35,1.89,.48,3.82-.74,5.53-.26,.37-.24,.66,.03,1.01,.69,.91,.91,1.96,.9,3.09-.03,1.54-.03,3.08,0,4.61,.02,.95-.38,1.36-1.35,1.36-.96,0-1.38-.39-1.38-1.34,.02-1.64,.02-3.28,0-4.92-.03-1.6-1.85-2.64-3.29-1.91-.4,.2-.33,.56-.33,.89,0,1.91,0,3.83,0,5.74,0,1.28-.19,1.5-1.23,1.52-1.18,.02-1.46-.24-1.47-1.55-.02-2.6,0-5.2,0-7.79Zm2.71-4.45c0,.65,0,1.3,0,1.95,0,.27-.03,.56,.22,.76,.91,.75,3.21-.09,3.35-1.27,.1-.87,.1-1.78,0-2.66-.13-1.09-1.13-1.53-2.78-1.43-1.18,.07-.7,.94-.79,1.52-.05,.37-.01,.75,0,1.13Z" />
      <path
        d="M233.47,252.64c0-2.5-.01-4.99,0-7.49,0-1.55,.48-2.03,2.02-2.06,1.09-.02,2.19-.07,3.27,.12,2.12,.37,3.73,2.09,3.77,4.25,.06,3.45,.06,6.91,0,10.36-.04,2.47-1.95,4.3-4.41,4.39-.96,.03-1.91,.02-2.87,0-1.24-.02-1.76-.55-1.77-1.87-.03-2.56,0-5.13,0-7.69Zm2.72-.08c0,1.98,0,3.97,0,5.95,0,.36-.06,.75,.43,.93,1.77,.64,3.21-.32,3.21-2.2,.01-2.97,0-5.95,0-8.92,0-2-.58-2.52-2.57-2.54-.88,0-1.11,.33-1.1,1.15,.04,1.88,.01,3.76,.01,5.64Z" />
      <path
        d="M103.79,254.27c0,2.22-.02,4.44,0,6.66,.01,.91-.35,1.3-1.28,1.3-.9,0-1.45-.26-1.45-1.26,.01-1.95-.03-3.9,.01-5.84,.02-.83-.26-1.16-1.12-1.13-3.02,.08-2.5-.4-2.54,2.55-.02,1.47-.02,2.94,0,4.41,.01,.92-.42,1.27-1.32,1.28-.94,.01-1.41-.33-1.4-1.3,.01-4.37-.04-8.75,.02-13.12,.04-2.71,2.04-4.66,4.6-4.65,2.5,0,4.44,2.06,4.47,4.77,.02,2.12,0,4.24,0,6.36Zm-6.34-5.26s-.01,0-.02,0c0,.48,.01,.95,0,1.43-.02,.61,.3,.95,.86,.83,.92-.2,2.05,.63,2.76-.56,.03-.05,.02-.13,.02-.2,0-1.02,.03-2.04-.02-3.06-.05-.94-.83-1.63-1.76-1.64-.92-.01-1.73,.65-1.83,1.58-.06,.54-.01,1.09-.01,1.63Z" />
      <path
        d="M285.46,254.26c0,2.15,0,4.31,0,6.46,0,1.27-.19,1.48-1.26,1.49-1.19,.02-1.45-.24-1.45-1.54-.01-1.85-.03-3.69,0-5.54,.02-.82-.24-1.17-1.11-1.14-3.03,.08-2.51-.4-2.55,2.54-.02,1.47-.02,2.94,0,4.41,.01,.91-.4,1.28-1.31,1.29-.93,.01-1.42-.31-1.41-1.29,.01-4.41-.05-8.82,.03-13.22,.05-2.7,2.14-4.63,4.68-4.56,2.48,.07,4.35,2.09,4.37,4.75,.02,2.12,0,4.24,0,6.36Zm-2.73-5.27c0-.48,.03-.95,0-1.43-.07-1.01-.8-1.73-1.76-1.75-1-.02-1.8,.72-1.85,1.77-.04,.81,.04,1.64-.03,2.45-.08,.99,.31,1.31,1.28,1.28,2.69-.07,2.36,.25,2.37-2.33Z" />
      <path
        d="M129.04,254.26c0,2.12,0,4.24,0,6.36,0,1.37-.17,1.58-1.26,1.59-1.21,.02-1.45-.24-1.45-1.65,0-1.81-.03-3.62,0-5.43,.02-.83-.25-1.16-1.11-1.14-3.02,.08-2.5-.4-2.55,2.54-.02,1.47-.02,2.94,0,4.41,.01,.91-.41,1.27-1.31,1.28-.93,.01-1.41-.32-1.41-1.3,.01-4.41-.05-8.82,.03-13.22,.05-2.7,2.14-4.63,4.68-4.55,2.48,.08,4.34,2.09,4.37,4.75,.02,2.12,0,4.24,0,6.36Zm-2.73-5.26c0-.48,.02-.95,0-1.43-.06-1.02-.79-1.74-1.75-1.77-1-.03-1.81,.71-1.87,1.76-.04,.78-.02,1.56-.02,2.35,0,1.36,.02,1.39,1.35,1.38,2.59,0,2.28,.25,2.29-2.29Z" />
      <path
        d="M152.03,254.24c0,2.22-.02,4.44,0,6.66,.01,.89-.3,1.34-1.25,1.32-1.15-.02-1.45-.23-1.46-1.33-.02-1.91-.03-3.83,0-5.74,.01-.8-.2-1.18-1.09-1.16-3.05,.08-2.52-.39-2.57,2.52-.02,1.47-.02,2.94,0,4.41,.01,.9-.37,1.3-1.29,1.31-.92,.01-1.43-.28-1.43-1.28,.01-4.41-.05-8.82,.03-13.22,.05-2.71,2.12-4.64,4.67-4.58,2.48,.06,4.36,2.08,4.39,4.74,.02,2.12,0,4.24,0,6.35Zm-6.35-5.27c.02,2.59-.38,2.3,2.37,2.32,.14,0,.27,0,.41,0,.61,.02,.87-.29,.86-.88-.01-.96,.02-1.92-.02-2.87-.05-1.02-.84-1.74-1.8-1.72-.99,.02-1.74,.72-1.82,1.73-.04,.48,0,.96,0,1.44Z" />
      <path
        d="M64.29,254.17c0-2.15-.02-4.31,0-6.46,.03-2.55,1.87-4.46,4.34-4.55,2.42-.09,4.43,1.62,4.6,4.15,.31,4.57,.09,9.16,.11,13.73,0,1.02-.64,1.2-1.51,1.19-.9,0-1.19-.44-1.18-1.28,.02-1.98-.02-3.97,.02-5.95,.01-.75-.25-1.04-1.01-1.02-3.37,.08-2.71-.46-2.77,2.72-.03,1.44-.04,2.87,0,4.31,.03,.98-.47,1.22-1.34,1.22-.84,0-1.28-.29-1.27-1.19,.02-2.29,0-4.58,0-6.87Zm6.36-5.05c0-.44,.02-.89,0-1.33-.06-1.18-.74-1.93-1.79-1.97-1.03-.04-1.82,.68-1.94,1.84-.07,.68-.03,1.36-.03,2.05,0,1.57,0,1.58,1.56,1.57,2.52-.02,2.18,.27,2.21-2.15Z" />
      <path
        d="M320.05,252.79c0-2.6,0-5.2,0-7.79,0-1.45,.43-1.9,1.9-1.92,1.12-.02,2.25-.09,3.37,.13,2.15,.4,3.63,2.11,3.66,4.31,.02,1.66,.23,3.38-.95,4.81-.26,.32-.06,.57,.12,.82,.66,.89,.87,1.9,.85,3-.03,1.64-.03,3.28,0,4.92,.02,.92-.47,1.16-1.29,1.16-.81,0-1.32-.21-1.31-1.15,.02-1.61,.02-3.21,0-4.82-.02-1.86-1.66-2.92-3.37-2.23-.48,.19-.38,.6-.39,.96,0,1.95-.03,3.9,0,5.84,.02,.92-.26,1.42-1.28,1.39-1.11-.04-1.32-.21-1.32-1.43,0-2.67,0-5.33,0-8Zm2.59-4.28h0c0,.65,0,1.29,0,1.94,0,.27,0,.54,.28,.72,1.16,.72,3.23-.16,3.42-1.52,.1-.73,.11-1.5,0-2.24-.18-1.29-1.12-1.77-2.92-1.63-1.31,.1-.63,1.1-.78,1.71-.08,.32-.01,.68-.01,1.02Z" />
      <path
        d="M160.54,252.69c0-2.56,0-5.12,0-7.69,0-1.46,.41-1.89,1.88-1.91,1.12-.02,2.25-.09,3.37,.12,2.14,.42,3.66,2.13,3.69,4.3,.04,3.45,.04,6.9,0,10.35-.03,2.38-1.92,4.23-4.34,4.33-.96,.04-1.91,.02-2.87,0-1.29-.02-1.73-.44-1.73-1.73-.01-2.6,0-5.19,0-7.79Zm2.59-.06c0,1.95,0,3.9,0,5.85,0,.44-.05,.88,.59,1,2.11,.39,3.17-.44,3.18-2.57,.01-2.8,0-5.61,0-8.41,0-2.12-.67-2.74-2.77-2.72-.74,0-1.04,.24-1.02,1.01,.04,1.95,.01,3.9,.01,5.85Z" />
      <path
        d="M28.67,252.67c0,1.64,.02,3.28,0,4.92-.04,2.56-1.84,4.5-4.28,4.62-2.37,.12-4.47-1.58-4.66-4.09-.28-3.68-.29-7.37,.02-11.05,.19-2.35,2.29-4.08,4.56-3.99,2.38,.09,4.3,2.03,4.36,4.46,.04,1.71,0,3.42,0,5.12Zm-6.36-.08c0,1.61-.01,3.21,0,4.82,.02,1.33,.72,2.09,1.87,2.08,1.14-.01,1.77-.68,1.78-2.03,.02-3.21,.02-6.42,0-9.64,0-1.35-.64-2.03-1.77-2.03-1.14,0-1.86,.77-1.88,2.08-.02,1.57,0,3.14,0,4.72Z" />
      <path
        d="M318.31,252.72c0,1.67,.02,3.35,0,5.02-.04,2.45-1.92,4.37-4.32,4.46-2.34,.09-4.43-1.64-4.6-4.04-.27-3.71-.27-7.44,.01-11.15,.17-2.24,2.3-4,4.52-3.94,2.33,.06,4.31,1.98,4.39,4.32,.05,1.77,.01,3.55,.01,5.33h0Zm-2.59-.05h0c0-1.6,.04-3.21-.01-4.81-.04-1.38-.83-2.14-2.01-2.07-1.07,.07-1.73,.83-1.74,2.12-.02,3.1-.01,6.21,0,9.31,0,1.45,.64,2.23,1.79,2.26,1.23,.03,1.94-.73,1.97-2.21,.03-1.53,0-3.07,0-4.6Z" />
      <path
        d="M140.54,254.21c0,2.19,0,4.38,0,6.57,0,1.18-.26,1.44-1.35,1.44-1.08,0-1.36-.26-1.36-1.43-.01-4.17,0-8.35-.01-12.52,0-.44,.03-.92-.12-1.32-.33-.88-1.05-1.26-1.96-1.12-.92,.14-1.48,.72-1.54,1.66-.06,.95-.03,1.91-.03,2.87,0,3.45,0,6.91,0,10.36,0,1.25-.26,1.51-1.39,1.5-1.05,0-1.32-.28-1.32-1.48,0-4.28-.03-8.55,0-12.83,.03-2.77,2.05-4.86,4.57-4.83,2.58,.03,4.49,2.14,4.51,4.97,0,1.09,0,2.19,0,3.28,0,.96,0,1.92,0,2.87Z" />
      <path
        d="M172.04,252.68c0-1.71-.02-3.41,0-5.12,.04-2.53,2.06-4.52,4.52-4.48,2.41,.03,4.41,2.03,4.43,4.48,.03,3.38,.03,6.76,0,10.14-.02,2.54-2.01,4.52-4.48,4.51-2.49,0-4.43-1.95-4.46-4.51-.02-1.67,0-3.35,0-5.02Zm2.59-.05c0,1.57-.01,3.14,0,4.71,.01,1.35,.67,2.13,1.8,2.15,1.16,.03,1.93-.69,1.95-2.01,.05-3.21,.04-6.41,0-9.62-.02-1.33-.79-2.08-1.91-2.06-1.13,.02-1.82,.79-1.84,2.13-.02,1.57,0,3.14,0,4.71Z" />
      <path
        d="M203.65,254.06c0-2.15-.02-4.31,0-6.46,.02-2.54,2.02-4.53,4.49-4.52,2.43,.01,4.43,1.98,4.45,4.46,.03,4.45,0,8.89,.02,13.34,0,.96-.33,1.36-1.32,1.36-1,0-1.3-.44-1.29-1.38,.03-4.28,.02-8.55,0-12.83,0-1.31-.63-2.12-1.65-2.23-1.23-.13-2.1,.68-2.11,2.06-.03,2.63-.01,5.27-.01,7.9,0,1.68,0,3.35,0,5.03,0,1.22-.21,1.39-1.32,1.43-1.02,.04-1.29-.47-1.27-1.39,.04-2.26,.01-4.51,.01-6.77Z" />
      <path
        d="M296.53,248.03c0,1.39-.41,1.78-1.68,1.61-.65-.08-.98-.43-1.01-1.07-.02-.38-.02-.75-.04-1.13-.06-.86-.55-1.39-1.36-1.59-.81-.2-1.5,.08-1.96,.78-.44,.67-.4,1.34,.1,1.99,1.66,2.17,3.31,4.35,4.95,6.54,1.24,1.65,1.32,3.25,.27,4.93-.96,1.54-2.88,2.39-4.59,2.05-1.88-.38-3.3-1.85-3.61-3.74-.05-.34-.11-.68-.12-1.02-.07-1.46,.65-2.01,2.05-1.61,.43,.12,.61,.42,.63,.83,.02,.38,0,.75,.03,1.13,.06,.83,.47,1.45,1.27,1.68,.77,.22,1.53,.1,2.02-.62,.5-.73,.44-1.47-.1-2.18-1.57-2.07-3.05-4.22-4.72-6.2-1.7-2.02-1.24-3.95-.31-5.37,1.02-1.57,3.04-2.26,4.87-1.76,1.92,.53,3.23,2.23,3.31,4.33,0,.14,0,.27,0,.41Z" />
      <path
        d="M17.58,247.87c0,1.51-.31,1.85-1.51,1.78-.8-.04-1.18-.43-1.2-1.22,0-.31-.01-.61-.02-.92-.03-.86-.49-1.42-1.29-1.65-.8-.23-1.5,0-1.98,.7-.49,.7-.46,1.37,.08,2.07,1.69,2.2,3.34,4.41,5,6.63,1.16,1.55,1.22,3.2,.18,4.84-.97,1.53-2.88,2.38-4.59,2.03-1.78-.36-3.27-1.83-3.57-3.55-.07-.4-.12-.81-.14-1.22-.08-1.44,.69-2.02,2.07-1.58,.43,.14,.59,.44,.6,.85,.02,.41-.01,.82,.04,1.23,.1,.78,.52,1.36,1.29,1.56,.77,.2,1.53,.08,2.01-.65,.46-.69,.44-1.42-.08-2.1-1.62-2.16-3.19-4.36-4.89-6.46-1.22-1.51-1.29-3.04-.47-4.67,.83-1.64,2.27-2.49,4.08-2.44,1.85,.06,3.22,1.04,4,2.74,.31,.66,.42,1.37,.38,2.01Z" />
      <path
        d="M298.55,252.65c0-2.67-.01-5.33,0-8,0-1.3,.27-1.57,1.57-1.57,1.23,0,2.46-.12,3.68,.11,2.3,.43,3.78,2.17,3.82,4.52,0,.31,0,.62,0,.92,0,3.55-1.7,5.31-5.24,5.33-.93,0-1.16,.35-1.14,1.21,.05,1.91,0,3.83,.02,5.74,.01,.9-.33,1.3-1.27,1.31-.93,0-1.44-.31-1.44-1.28,0-2.77,0-5.54,0-8.3h0Zm2.71-4.16h0c0,.68,0,1.36,0,2.04,0,.44,.18,.67,.65,.74,2.14,.33,3-.39,3.01-2.54,0-.41,.01-.82-.02-1.22-.11-1.31-.88-1.76-2.71-1.73-1.4,.02-.81,1.04-.92,1.69-.06,.33,0,.68,0,1.02Z" />
      <path
        d="M33.8,252.72c0,1.51,0,3.01,0,4.52,0,1.46,.64,2.23,1.81,2.25,1.21,.01,1.79-.68,1.83-2.19,.03-1.55,.54-2,1.89-1.71,.41,.09,.71,.29,.77,.71,.26,1.93-.16,4.16-2.36,5.35-1.92,1.03-4.15,.59-5.55-1.11-.66-.79-1.02-1.72-1.03-2.74-.07-3.55-.22-7.12,.08-10.66,.2-2.4,2.24-4.15,4.49-4.07,2.36,.09,4.24,1.93,4.42,4.32,.02,.31,0,.62,.02,.92,.05,.9-.35,1.33-1.27,1.33-.9,0-1.45-.31-1.44-1.3,0-.24,0-.48-.01-.72-.06-1.14-.73-1.83-1.77-1.85-1.05-.02-1.82,.74-1.84,1.9-.03,1.68,0,3.35,0,5.03h0Z" />
      <path
        d="M183.53,252.68c0-1.71-.02-3.42,0-5.13,.04-2.52,2-4.48,4.42-4.47,2.4,.02,4.42,2,4.51,4.44,.01,.27,0,.55,0,.82,.05,.91-.37,1.31-1.28,1.32-.92,0-1.44-.34-1.43-1.31,0-.27,0-.55-.02-.82-.08-1.05-.7-1.68-1.66-1.73-.99-.05-1.79,.58-1.93,1.6-.08,.61-.04,1.23-.04,1.84,0,2.74-.01,5.47,0,8.21,0,1.31,.75,2.08,1.91,2.04,.97-.03,1.59-.59,1.7-1.57,.04-.34,.04-.68,.04-1.02,0-.94,.42-1.35,1.39-1.34,.97,.01,1.32,.44,1.33,1.38,.04,2.74-1.14,4.52-3.47,5.13-2.66,.7-5.39-1.3-5.47-4.05-.05-1.78,0-3.56,0-5.33h0Z" />
      <path
        d="M50.87,262.21c-.51,0-1.03,0-1.54,0-1.53-.01-2.02-.48-2.02-2.04-.02-3.73,0-7.46,0-11.18,0-1.33-.02-2.67,0-4,.02-1.37,.52-1.88,1.85-1.91,1.16-.03,2.33,0,3.49,0,.98-.01,1.3,.49,1.29,1.42,0,.91-.34,1.36-1.27,1.3-.07,0-.14,0-.21,0-2.45,.03-2.47,.03-2.45,2.43,0,.92-.35,2.01,.15,2.71,.56,.78,1.72,.27,2.61,.33,.97,.07,1.15,.62,1.16,1.45,0,.85-.32,1.3-1.2,1.27-.03,0-.07,0-.1,0q-2.62,.11-2.62,2.78t2.58,2.74c1.11,.07,1.31,.34,1.34,1.47,.03,1.05-.54,1.28-1.43,1.24-.55-.03-1.09,0-1.64,0Z" />
      <path
        d="M194.61,252.62c0-2.6,0-5.19,0-7.79,0-1.28,.44-1.72,1.72-1.75,1.2-.03,2.39,0,3.59,0,1.04-.01,1.21,.6,1.2,1.48,0,.87-.35,1.22-1.22,1.24-2.71,.08-2.7,.1-2.7,2.78,0,2.6,0,2.62,2.6,2.69,.95,.03,1.34,.39,1.33,1.36,0,.94-.31,1.37-1.3,1.38-2.63,.04-2.65,.07-2.62,2.64,0,.88-.36,1.93,.19,2.59,.55,.66,1.61,.23,2.45,.26,.98,.04,1.28,.51,1.28,1.44,0,.91-.34,1.32-1.27,1.29-1.19-.04-2.39,0-3.59-.01-1.22-.02-1.65-.45-1.66-1.69-.01-2.63,0-5.26,0-7.89Z" />
      <path
        d="M58.34,253.84c0-2.33-.02-4.65,.01-6.98,.01-.78-.22-1.16-1.05-1.08-1.03,.1-1.26-.48-1.27-1.39,0-.92,.36-1.32,1.27-1.32,1.57,.01,3.15,0,4.72,0,.86,0,1.33,.34,1.33,1.29,0,.91-.28,1.49-1.28,1.41-.95-.08-1.03,.48-1.03,1.22,.01,4.55,0,9.1,0,13.65,0,.78-.04,1.53-1.14,1.57-1.28,.05-1.56-.19-1.57-1.5,0-2.29,0-4.58,0-6.87Z" />
      <path
        d="M258.07,253.86c0-2.29-.03-4.58,.02-6.87,.02-.85-.19-1.3-1.13-1.21-.9,.09-1.17-.42-1.17-1.26,0-.83,.15-1.43,1.14-1.43,1.64,0,3.28,0,4.93,0,.91,0,1.26,.47,1.24,1.37-.01,.88-.34,1.4-1.27,1.32-.94-.08-1.05,.44-1.05,1.2,.02,4.55,.01,9.1,0,13.65,0,.78-.02,1.54-1.12,1.59-1.29,.06-1.58-.18-1.58-1.48,0-2.29,0-4.58,0-6.88Z" />
      <path
        d="M88.77,253.79c0-2.26-.02-4.52,.01-6.77,.01-.82-.16-1.32-1.12-1.24-.89,.07-1.18-.46-1.19-1.28-.02-.87,.28-1.39,1.21-1.4,1.68,0,3.35,0,5.03,0,1.03,0,1.07,.71,1.07,1.49,0,.81-.3,1.28-1.14,1.19-1.02-.11-1.17,.41-1.17,1.28,.03,4.55,.02,9.1,.01,13.65,0,1.28-.19,1.5-1.24,1.51-1.17,.02-1.45-.25-1.46-1.55-.02-2.29,0-4.58,0-6.87Z" />
      <path
        d="M106.2,252.38c0-2.6,0-5.19,0-7.79,0-1.25,.28-1.54,1.37-1.53,1.08,0,1.34,.29,1.34,1.56,0,4.41,0,8.82,0,13.22q0,1.65,1.71,1.66c.24,0,.48,0,.72,0,1.22,.05,1.5,.32,1.47,1.44-.03,1.03-.29,1.25-1.53,1.26-1.09,0-2.19,.01-3.28,0-1.27-.02-1.78-.51-1.79-1.83-.03-2.66,0-5.33,0-8h0Z" />
      <path
        d="M215.96,253.89c0-2.32-.03-4.65,.01-6.97,.01-.82-.21-1.22-1.09-1.14-.97,.09-1.34-.41-1.35-1.35-.01-.98,.46-1.35,1.38-1.35,1.57,0,3.15,0,4.72,0,.89,0,1.32,.41,1.31,1.31,0,.89-.3,1.49-1.31,1.39-.87-.09-1.1,.31-1.09,1.13,.03,4.65,.02,9.3,0,13.95,0,1.15-.26,1.35-1.4,1.36-.89,0-1.21-.4-1.2-1.25,.03-2.36,0-4.72,0-7.08Z" />
      <path
        d="M332.34,253.79c0-2.29-.03-4.58,.01-6.87,.01-.82-.21-1.22-1.09-1.14-.97,.09-1.33-.41-1.34-1.35-.01-.99,.47-1.35,1.38-1.35,1.57,0,3.15,0,4.72,0,.89,0,1.31,.42,1.31,1.31,0,.89-.31,1.49-1.32,1.38-.88-.09-1.1,.32-1.09,1.14,.03,4.62,.02,9.23,.01,13.85,0,1.25-.24,1.45-1.4,1.46-.89,0-1.2-.4-1.2-1.25,.02-2.39,0-4.79,0-7.18Z" />
      <path
        d="M117.55,252.69c0,2.7,0,5.39,0,8.09,0,1.22-.21,1.43-1.32,1.43-1.11,0-1.38-.25-1.38-1.4-.01-5.39-.01-10.79,0-16.18,0-1.27,.28-1.56,1.35-1.56,1.09,0,1.35,.28,1.36,1.54,0,2.7,0,5.39,0,8.09Z" />
      <path
        d="M81.75,252.6c0-2.7,0-5.39,0-8.09,0-1.16,.3-1.46,1.34-1.45,1.04,0,1.36,.32,1.37,1.46,.01,5.43,.01,10.85,0,16.28,0,1.16-.27,1.41-1.38,1.41-1.11,0-1.33-.21-1.33-1.42,0-2.73,0-5.46,0-8.19Z" />
      <path
        d="M222.37,252.51c0-2.66,0-5.32,0-7.99,0-1.17,.28-1.45,1.33-1.46,1.07,0,1.37,.28,1.38,1.42,0,5.43,0,10.85,0,16.28,0,1.18-.27,1.44-1.34,1.45-1.12,0-1.37-.26-1.38-1.51,0-2.73,0-5.46,0-8.19Z" />
      <path
        d="M341.48,252.66c0,2.7,0,5.39,0,8.09,0,1.22-.28,1.45-1.42,1.48-1,.02-1.31-.49-1.3-1.4,.02-2.87,0-5.73,0-8.6,0-2.56,0-5.12,0-7.68,0-1.19,.27-1.47,1.31-1.48,1.1-.01,1.39,.28,1.4,1.5,0,2.7,0,5.39,0,8.09Z" />
      <path
        d="M44.89,252.72c0,2.7-.02,5.4,.01,8.11,0,.91-.25,1.43-1.27,1.4-1.12-.04-1.43-.24-1.43-1.37-.02-5.47-.02-10.94,0-16.42,0-1.08,.38-1.37,1.45-1.38,1.02,0,1.26,.56,1.25,1.45-.02,2.74,0,5.47,0,8.21Z" />
      <path
        d="M247.68,252.72c0,2.67,0,5.34,0,8,0,1.22-.23,1.47-1.3,1.48-1.13,.02-1.41-.25-1.41-1.48,0-5.37,0-10.74,0-16.11,0-1.28,.33-1.57,1.46-1.56,.93,0,1.26,.48,1.25,1.36-.02,2.77,0,5.54,0,8.31Z" />
      <path
        d="M65.76,235.25c1.07-.08,1.71,.28,2.13,1.05,.61,1.11,1.23,2.21,1.85,3.31,.41,.72,.18,1.07-.61,1.17-1.14,.14-1.89-.21-2.47-1.23-.54-.95-1.08-1.9-1.6-2.86-.19-.35-.54-.7-.31-1.13,.26-.49,.79-.27,1.01-.32Z" />
    </g>
  </g>
</svg>