<?xml version="1.0" encoding="UTF-8"?>
<svg id="herminius_logo_classic" xmlns="http://www.w3.org/2000/svg"
  xmlns:xlink="http://www.w3.org/1999/xlink" viewBox="-52.5 -59.60 350 350">
  <defs>
    <filter id="drop-shadow-1" filterUnits="userSpaceOnUse">
      <feOffset dx="1" dy="1" />
      <feGaussianBlur result="blur" stdDeviation="1" />
      <feFlood flood-color="#676766" flood-opacity=".75" />
      <feComposite in2="blur" operator="in" />
      <feComposite in="SourceGraphic" />
    </filter>
    <filter id="drop-shadow-2" filterUnits="userSpaceOnUse">
      <feOffset dx="1" dy="1" />
      <feGaussianBlur result="blur-2" stdDeviation="1" />
      <feFlood flood-color="#676766" flood-opacity=".75" />
      <feComposite in2="blur-2" operator="in" />
      <feComposite in="SourceGraphic" />
    </filter>
  </defs>
  <g style="filter: url(#drop-shadow-1);">
    <g>
      <path
        d="M152.97,228.35c-3.73-2.58-5.95-6.82-5.95-11.33,0-5.73,3.54-10.77,9.01-12.85,36.72-13.92,61.39-49.59,61.39-88.78,0-39.18-24.67-74.85-61.39-88.77-5.48-2.07-9.02-7.11-9.02-12.85,0-4.52,2.22-8.75,5.95-11.33,3.72-2.57,8.45-3.15,12.69-1.56,47.46,17.93,79.34,63.94,79.34,114.51,0,50.57-31.88,96.59-79.34,114.51-1.57,.6-3.21,.89-4.85,.89-2.76,0-5.5-.83-7.84-2.45Z"
        style="fill: #1d1d1b;" />
      <path id="guscio_dx"
        d="M153.14,13.78h0c0,3.21,2.06,5.98,5.06,7.12,38.15,14.46,65.35,51.35,65.35,94.51s-27.2,80.05-65.35,94.51c-3,1.14-5.06,3.91-5.06,7.12h0c0,5.33,5.36,9.04,10.35,7.16,43.98-16.61,75.38-59.05,75.38-108.78S207.48,23.23,163.5,6.62c-4.99-1.88-10.35,1.82-10.35,7.16Z"
        style="fill: #1d1d1b;">
        <animate id="fill_carminio_first" attributeName="fill"
          values="#1b1b1d;#1b1b1d;#960018;#eec007;#1b1b1d;#1b1b1d"
          dur="37s" keytimes="0;0.2;0.4;0.6;0.8;1" begin="0;fill_saffron_first.end"></animate>
        <animate id="fill_saffron_first" attributeName="fill"
          values="#1b1b1d;#1b1b1d;#eec007;#960018;#1b1b1d;#1b1b1d"
          dur="37s" keytimes="0;0.2;0.4;0.6;0.8;1" begin="fill_carminio_first.end"></animate>
      </path>
    </g>
    <g>
      <path
        d="M84.19,230.8c-1.64,0-3.28-.29-4.85-.89C31.88,211.98,0,165.96,0,115.4S31.88,18.81,79.34,.88c4.24-1.59,8.97-1.01,12.69,1.56,3.73,2.57,5.95,6.81,5.95,11.33,0,5.73-3.54,10.78-9.02,12.85-36.72,13.92-61.39,49.59-61.39,88.77s24.67,74.86,61.39,88.78c5.47,2.07,9.01,7.11,9.01,12.85,0,4.52-2.23,8.75-5.95,11.33-2.34,1.62-5.08,2.45-7.84,2.45Z"
        style="fill: #1d1d1b;" />
      <path id="guscio_sx"
        d="M91.85,217.02c0-3.21-2.06-5.98-5.06-7.12-38.15-14.46-65.35-51.35-65.35-94.51S48.65,35.35,86.8,20.89c3-1.14,5.06-3.91,5.06-7.12h0c0-5.33-5.36-9.04-10.35-7.16C37.52,23.23,6.13,65.67,6.13,115.4s31.39,92.17,75.37,108.78c4.99,1.88,10.35-1.82,10.35-7.16h0Z"
        style="fill: #1d1d1b;">
        <animate id="fill_carminio_first" attributeName="fill"
          values="#1b1b1d;#1b1b1d;#960018;#eec007;#1b1b1d;#1b1b1d"
          dur="37s" keytimes="0;0.2;0.4;0.6;0.8;1" begin="0;fill_saffron_first.end"></animate>
        <animate id="fill_saffron_first" attributeName="fill"
          values="#1b1b1d;#1b1b1d;#eec007;#960018;#1b1b1d;#1b1b1d"
          dur="37s" keytimes="0;0.2;0.4;0.6;0.8;1" begin="fill_carminio_first.end"></animate>
      </path>
    </g>
  </g>
  <g style="filter: url(#drop-shadow-2);">
    <g stroke-dasharray="900">
      <animate attributeName="stroke-dashoffset" from="900" to="0"
        begin="7;fill_saffron_first.end+7;click" dur="7s"
        fill="freeze" repeatCount="1" />
      <g>
        <path
          d="M184.73,77.49c-.07,0-.13,.26-.19,.4-.02,.15-.05,.31-.07,.46,.12-.1,.25-.2,.35-.31,.31-.35,.28-.56-.08-.55Z"
          style="fill: #96191c; stroke: #1d1d1b; stroke-miterlimit: 10; stroke-width: .75px;" />
        <path
          d="M149.81,116.1c-2.32,.45-4.5,1.38-6.71,2.16,.65-.08,1.32-.25,1.99-.49,1.57-.57,3.08-1.31,4.73-1.67Z"
          style="fill: #eec00a; stroke: #1d1d1b; stroke-miterlimit: 10; stroke-width: .75px;" />
        <path
          d="M133.75,126.81c3.53-4.06,7.84-6.74,13.13-8.01,2.76-.66,5.36-1.97,8.03-3.01,.83-.32,1.55-.93,1.4-1.86-.24-1.39-1.44-1.17-2.41-1.07-3.25,.35-6.01,2.12-9.02,3.18-1.76,.63-3.72,1.45-5.17-.22-1.31-1.51,.07-3.17,.53-4.73,.09-.32,.29-.61,.44-.91,3.89-7.91,9.61-14.13,17.03-18.9,7.81-5.02,16.38-8.59,24.46-13.1,1.08-3.46-1.85-1.29-2.76-1.97-1.01,.61-1.96,1.34-3.03,1.8-8.98,3.88-17.19,9.12-25.41,14.34-9.84,5.61-15.09,14.75-19.14,24.82,.12,1.25,.91,1.99,1.95,2.53,1.37,1.84-.17,2.11-1.39,2.59-2.49,.99-3.6,2.75-2.9,5.44,2.18,3.14,3.18,.93,4.25-.95Z"
          style="fill: #eec00a; stroke: #1d1d1b; stroke-miterlimit: 10; stroke-width: .75px;" />
        <path
          d="M160.95,134.55c.71-.08,1.43-.11,2.14-.21,1.16-.27,2.24-.8,3.44-.92,1.03-.14,1.76-.73,2.34-1.55,.86-.77,1.92-.96,3.02-1.01,4.04-1.64,8.05-3.36,12.13-4.89,4.2-1.58,7.54-4.3,10.56-7.49,.44-.47,.81-1.26,.17-1.8-.8-.67-1.53,.07-2.26,.39-1.74,2.42-4.28,3.83-6.86,5.04-2.74,1.28-5.72,2.05-8.5,3.26-6.09,2.65-12.43,4.21-19.05,4.67-.55,.27-1.12,.18-1.69,.1-.76-.29-1.54-.34-2.34-.21-.81,.16-1.6,.38-2.22,.97-.64,.02-1.29,.04-1.93,.06-.82,.45-1.82,.23-2.64,.68-1.08,.39-2.55,.12-2.93,1.7,.02,.53,.23,.99,.61,1.35,.64,.51,1.38,.75,2.2,.73,2.13,.02,4.26,.02,6.39,.04,1.29-.01,2.57,.19,3.86,0,1.23-.13,2.32-.79,3.55-.9Z"
          style="fill: #eec00a; stroke: #1d1d1b; stroke-miterlimit: 10; stroke-width: .75px;" />
        <path
          d="M169.05,132.99c.28-.13,.79-.25,.8-.4,.04-.64-.57-.57-.98-.72-.96,.06-1.92,.11-2.88,.17-.2,.75-.6,1.64,.8,1.47,.76-.09,1.5-.34,2.25-.52Z"
          style="fill: #96191c; stroke: #1d1d1b; stroke-miterlimit: 10; stroke-width: .75px;" />
        <path
          d="M147.87,131.71c.08,0,.16-.1,.22-.29,.06-.19-.04-.35-.32-.49-3.57-.44-7.13-.88-10.7-1.3-1.75-.2-3.27-.63-3.31-2.82-1.21,.9-2.49,2.62-3.37-.29-1.64,1.34-2.14,2.72,.23,3.69,3.23,1.32,6.58,2.29,10.08,2.62,1.24,.93,2.54,.66,3.84,.17,1.24-.11,2.45-.28,3.34-1.29Z"
          style="fill: #96191c; stroke: #1d1d1b; stroke-miterlimit: 10; stroke-width: .75px;" />
        <path
          d="M147.77,130.93c.02,.26,.06,.52,.1,.78,.68-.25,1.36-.5,2.04-.76-.71-.09-1.4-2.41-2.14-.03Z"
          style="fill: #eec00a; stroke: #1d1d1b; stroke-miterlimit: 10; stroke-width: .75px;" />
        <path
          d="M144.87,133.84c-.11-.28-.22-.56-.34-.84-1.28-.06-2.56-.12-3.84-.17,.87,2.51,2.8,.62,4.18,1.01Z"
          style="fill: #eec00a; stroke: #1d1d1b; stroke-miterlimit: 10; stroke-width: .75px;" />
        <path d="M157.68,133.86c1.17,.1,2.3,.04,3.22-.82-1.18-.14-2.27,.07-3.22,.82Z"
          style="fill: #96191c; stroke: #1d1d1b; stroke-miterlimit: 10; stroke-width: .75px;" />
        <path d="M154.94,131c.64,.7,1.28,.69,1.91,0-.64,0-1.27,0-1.91,0Z"
          style="fill: #96191c; stroke: #1d1d1b; stroke-miterlimit: 10; stroke-width: .75px;" />
        <path
          d="M162.96,134.98c-.67,0-1.35,0-2.02,0,.15,.58,.26,1.29,1.01,1.28,.74,0,.86-.71,1.01-1.29Z"
          style="fill: #96191c; stroke: #1d1d1b; stroke-miterlimit: 10; stroke-width: .75px;" />
      </g>
      <g>
        <path d="M52.47,156.76s.02,.02,.03,.03c0,0,0,0,0,0l-.03-.03Z"
          style="fill: #eec00a; stroke: #1d1d1b; stroke-miterlimit: 10; stroke-width: .75px;" />
        <path
          d="M61.62,148.75c.36-.37,.53-.81,.49-1.32-.25-.77-.78-1.22-1.56-1.37-3.05,1.13-4.46,4.18-6.96,5.96,0,.23-.07,.45-.19,.65,1.03,3.13,1.19,3.16,3.29,1.61,2.05-1.51,2.73-4.19,4.93-5.53Z"
          style="fill: #eec00a; stroke: #1d1d1b; stroke-miterlimit: 10; stroke-width: .75px;" />
        <path
          d="M62.65,143.69c-1.43,.35-3.37,.02-4.09,1.45-1.3,2.59-3.85,4.21-4.97,6.88,2.81-1.13,4.44-3.77,6.9-5.36,.72-.99,1.44-1.98,2.16-2.97Z"
          style="fill: #eec00a; stroke: #1d1d1b; stroke-miterlimit: 10; stroke-width: .75px;" />
        <path
          d="M59.51,154.61c-1.26,.41-2.36,1.07-3.19,2.13,.4,.03,.81,.06,1.21,.09,1.24-.23,1.88-.98,1.98-2.22Z"
          style="fill: #eec00a; stroke: #1d1d1b; stroke-miterlimit: 10; stroke-width: .75px;" />
        <path
          d="M51.75,156.44c.11-.25,.05-.52-.2-.81,.06-.6,.11-1.19,.17-1.79-2.84,.74-1.89,1.82-.27,2.96,.09,0,.2-.12,.31-.37Z"
          style="fill: #eec00a; stroke: #1d1d1b; stroke-miterlimit: 10; stroke-width: .75px;" />
        <path d="M52.47,156.76c.86,1.04,1.83,1.17,2.91,.34-.97-.12-1.94-.23-2.91-.34Z"
          style="fill: #eec00a; stroke: #1d1d1b; stroke-miterlimit: 10; stroke-width: .75px;" />
        <path
          d="M51.54,155.63c-.03,.39-.07,.78-.1,1.17,.36,0,.71-.01,1.07-.02-.32-.38-.64-.77-.97-1.15Z"
          style="fill: #eec00a; stroke: #1d1d1b; stroke-miterlimit: 10; stroke-width: .75px;" />
        <path d="M66.8,139.82c-.3,.3-.6,.59-.9,.89,.3-.3,.6-.59,.9-.89Z"
          style="fill: #eec00a; stroke: #1d1d1b; stroke-miterlimit: 10; stroke-width: .75px;" />
        <path d="M67.77,138.69c-.3,.34-.59,.68-.89,1.03,.3-.34,.59-.68,.89-1.03Z"
          style="fill: #eec00a; stroke: #1d1d1b; stroke-miterlimit: 10; stroke-width: .75px;" />
        <path
          d="M67.68,144.67c-.39-.38-.78-.76-1.17-1.14-1.57,1.48-3.14,2.96-4.7,4.44-.06,.26-.12,.52-.18,.78,2.88-.08,4.05-2.71,6.06-4.08Z"
          style="fill: #eec00a; stroke: #1d1d1b; stroke-miterlimit: 10; stroke-width: .75px;" />
        <path
          d="M128.79,87.64c3.69-2.16,6.36-5.63,10.06-7.8,.59-.41,1.19-.74,1.93-.68,.33,.08,.65,.22,.98,.33,.31,.19,.63,.4,.96,.56,.53,.34,1.11,.59,1.77,.57,2.3-.64,2.17-2.62,2.41-4.39-2.77-1.66-6.4-.84-8.98-3.06-1.31,1.79-2.95,3.19-5.01,4.05v-.06c-.39,.3-.77,.62-1.11,.97h0c-.28,.31-.6,.57-.95,.79-.21,.18-.46,.28-.74,.3-.56,.16-.98,.52-1.34,.97l.03-.02c-.95,.62-1.92,1.21-2.86,1.83-2.75,1.94-2.49,3.88,0,5.82,.47,.16,.95,.24,1.45,.21,.49-.07,.95-.18,1.4-.39Z"
          style="fill: #96191c; stroke: #1d1d1b; stroke-miterlimit: 10; stroke-width: .75px;" />
        <path
          d="M144.82,86.26c.43-.29,.8-.65,1.1-1.08,0,0-.07-.01-.07-.01,.72-1.25,1.53-2.47,2.14-3.77,.91-1.94,.8-3.77-1.08-5.17-1.76,.76-1.72,2.75-2.74,4.01-3.74,1.1-5.32,3.62-4.89,7.46,.68,1.13,1.55,1.43,2.7,.67,.95-.7,1.9-1.4,2.85-2.11Z"
          style="fill: #eec00a; stroke: #1d1d1b; stroke-miterlimit: 10; stroke-width: .75px;" />
        <path
          d="M134.85,117.72c-.73,.14-1.46,.6-2.17-.06-2.38,2.4-4.75,4.81-7.13,7.21-.7,1.17-.72,1.98,.99,1.86,3.06-2.73,6.43-5.19,8.3-9.01Z"
          style="fill: #96191c; stroke: #1d1d1b; stroke-miterlimit: 10; stroke-width: .75px;" />
        <path
          d="M128.8,80.17c-1.37,.32-2.73,.64-4.1,.96,0,0,0,0,0,0-.39,.4-.4,.82-.07,1.27,.72,.44,1.41,.28,2.07-.13,.7-.7,1.4-1.4,2.1-2.1Z"
          style="fill: #eec00a; stroke: #1d1d1b; stroke-miterlimit: 10; stroke-width: .75px;" />
        <path d="M130.11,79.22c-.45,.32-.89,.65-1.34,.97,.45-.32,.89-.65,1.34-.97Z"
          style="fill: #eec00a; stroke: #1d1d1b; stroke-miterlimit: 10; stroke-width: .75px;" />
        <path d="M131.79,78.13c-.32,.26-.63,.53-.95,.79,.32-.26,.63-.53,.95-.79Z"
          style="fill: #eec00a; stroke: #1d1d1b; stroke-miterlimit: 10; stroke-width: .75px;" />
        <path d="M132.91,77.15c-.37,.32-.74,.65-1.11,.97,.37-.32,.74-.65,1.11-.97Z"
          style="fill: #eec00a; stroke: #1d1d1b; stroke-miterlimit: 10; stroke-width: .75px;" />
        <path
          d="M122.45,129.69s-.03,.01-.03,.01c1.16-1.28,3.1-1.49,4.12-2.97-.59-.48-.89-1.12-.99-1.86-5.62,3.84-8.87,3.57-13.77-1.19-1.45-1.4-2.82-2.88-4.22-4.33-.75-.06-1.52-.48-2.21,.17,1.26,4.33,4.96,6.39,8.25,8.82,2.38,1.75,4.99,2.5,7.91,1.54,.38,.23,.7,.18,.95-.19Z"
          style="fill: #eec00a; stroke: #1d1d1b; stroke-miterlimit: 10; stroke-width: .75px;" />
        <path
          d="M110.18,114.13c4.28-3.19,8.63-6.28,12.91-9.45,6.7-4.96,13.28-10.07,18.87-16.32-.85-.14-1.64-.42-2.16-1.18-2.32-1.53-3.65,.2-5.13,1.53-3.47,3.12-7.19,5.94-10.86,8.82-6.9,5.41-14.35,10.2-20.12,16.95,.32,2.11,.87,4,3.53,4.07,.07-2.08,1.47-3.32,2.95-4.42Z"
          style="fill: #eec00a; stroke: #1d1d1b; stroke-miterlimit: 10; stroke-width: .75px;" />
        <path
          d="M95.08,122.72c1.05-1.16,2.53-1.63,3.63-2.68,.92-.85,1.74-1.86,3.17-1.8,1.26,.1,2.51,.29,3.45,1.26,0,0,.02,.03,.02,.03,.76,.3,1.53,.6,2.21-.17-.08-.28-.19-.55-.32-.81-1.01-1.31-1.46-3.03-2.97-3.96,.03-.66,.02-1.31-.33-1.91-.94-1.08-2.07-1.77-3.53-1.8-3.48,1.05-5.01,4.61-8.06,6.25-1.7,.91-2.63,2.44-2.22,4.5,1.21,2.43,2.78,3.49,4.96,1.08Z"
          style="fill: #eec00a; stroke: #1d1d1b; stroke-miterlimit: 10; stroke-width: .75px;" />
        <path d="M144.82,86.26c.37-.36,.73-.72,1.1-1.08-.37,.36-.73,.72-1.1,1.08Z"
          style="fill: #eec00a; stroke: #1d1d1b; stroke-miterlimit: 10; stroke-width: .75px;" />
        <path
          d="M109.47,105.61c6.06-5.83,12.13-11.63,17.27-18.33-2.07-1.65-1.43-3.33-.05-5.01-.64,.04-1.28,.08-1.92,.12-1.43,.33-2.43,1.53-3.83,1.92-.59,.45-1.02,1.02-1.26,1.73,.32,4.14-3.86,5.34-5.38,8.29-2.91,4.22-8.07,6.6-9.69,11.87,2.11,3.8,3.17-.89,4.85-.59Z"
          style="fill: #96191c; stroke: #1d1d1b; stroke-miterlimit: 10; stroke-width: .75px;" />
        <path d="M137.78,78.12c1.75-.34,3.5-.68,5.25-1.02-2.13-1.62-3.83-1.03-5.25,1.02Z"
          style="fill: #eec00a; stroke: #1d1d1b; stroke-miterlimit: 10; stroke-width: .75px;" />
        <path d="M127.68,86.21c-.32,.36-.64,.72-.96,1.07,.32-.36,.64-.72,.96-1.07Z"
          style="fill: #eec00a; stroke: #1d1d1b; stroke-miterlimit: 10; stroke-width: .75px;" />
        <path d="M142.97,77.07c.33,.37,.65,.74,.98,1.11-.1-.57-.42-.95-.98-1.11Z"
          style="fill: #eec00a; stroke: #1d1d1b; stroke-miterlimit: 10; stroke-width: .75px;" />
        <path
          d="M55.38,157.1c.29-.18,.6-.3,.94-.36,1.13-.61,2.5-.87,3.19-2.13,1.51-2.08,3.73-3.32,5.71-4.83,6.39-4.85,12.32-10.19,17.76-16.08,.8-1.17,1.03-2.31-.18-3.37-.47-.23-.96-.31-1.48-.22-.49,.15-.93,.37-1.32,.69-4.17,4.5-9.29,7.98-13.47,12.47-1.74,1.76-3.46,3.55-5.89,4.37-2.79,1.13-2.86,6.2-7.25,5.03-.56,.39-1.12,.79-1.68,1.18-.8,.3-.91,.91-.74,1.64,.32,.66,.98,.92,1.54,1.3-.01-.01-.02-.02-.03-.03l.03,.03s0,0,0,0c.87,.84,1.88,.53,2.87,.32Z"
          style="fill: #96191c; stroke: #1d1d1b; stroke-miterlimit: 10; stroke-width: .75px;" />
        <path
          d="M113.58,96.54c.37-.34,.45-.88,.43-1.4-.96-2.01-2.23-1.42-3.55-.42-.66,1.99-2.31,2.84-4.07,3.56-2.3,2.43-5.26,4.2-7.04,7.14-1.34,4.06-5.25,5.94-7.7,9.05-.84,1.07-3.27,2.15-.29,3.58,1.03-.2,1.86-.75,2.62-1.43,7.04-6.2,12.73-13.71,19.61-20.08Z"
          style="fill: #96191c; stroke: #1d1d1b; stroke-miterlimit: 10; stroke-width: .75px;" />
        <path
          d="M91.22,117.47c-.89-1.51,.56-2.06,1.26-2.8,2.03-2.15,4.18-4.19,6.26-6.31,.81-.82,1.71-1.69,.61-2.94h-.04c-.36,.26-.66,.58-.9,.95-4.54,4.73-9.09,9.45-13.63,14.18-.18,.35-.44,.61-.79,.77l-.16,.15c-.17,.35-.29,.71-.34,1.09-.1,.38-.3,.7-.62,.93l.03-.09c-1.02,2.17-3.02,3.48-4.52,5.23-.99,1.16-2.93,2-1.68,4.1,7.39-2.65,11.41-8.53,14.52-15.25Z"
          style="fill: #eec00a; stroke: #1d1d1b; stroke-miterlimit: 10; stroke-width: .75px;" />
        <path
          d="M76.87,132.58c.25-2.16,1.94-3.33,3.28-4.73,1.23-1.29,2.73-2.42,2.75-4.45-5.36,4.78-10.64,9.64-15.12,15.29,0,1.04,.29,1.91,1.4,2.28,2.93-2.46,7.12-3.76,7.7-8.38Z"
          style="fill: #eec00a; stroke: #1d1d1b; stroke-miterlimit: 10; stroke-width: .75px;" />
        <path
          d="M66.78,144.4c.55-.66,1.07-1.33,1.57-2.01,.23-.35,.36-.73,.41-1.15-.02-.2-.04-.41-.05-.61-.1-.75-.31-1.45-.93-1.95h-.01c-.37,.28-.67,.63-.89,1.03l-.08,.1c-.41,.18-.71,.48-.9,.89-1.08,.99-2.16,1.99-3.25,2.98-.89,.87-2.55,1.17-2.16,2.97,.44,.44,.87,.87,1.31,1.31,2.34-.23,3.18-2.56,4.98-3.56Z"
          style="fill: #eec00a; stroke: #1d1d1b; stroke-miterlimit: 10; stroke-width: .75px;" />
        <path
          d="M110.41,95.21c-.17-.09-.34-.19-.51-.28-.17,.09-.34,.19-.51,.28-.44,.72-1.15,1.01-1.92,1.19-.36,.62-.72,1.24-1.08,1.86,2.56,.59,3.64-.78,4.02-3.06Z"
          style="fill: #eec00a; stroke: #1d1d1b; stroke-miterlimit: 10; stroke-width: .75px;" />
        <path
          d="M124.77,82.4c-.03-.42-.06-.84-.08-1.26-1.01,.67-2.03,1.34-3.04,2.01-.59,.63-.59,1.27-.03,1.92,1.33-.57,2.19-1.68,3.16-2.68Z"
          style="fill: #eec00a; stroke: #1d1d1b; stroke-miterlimit: 10; stroke-width: .75px;" />
        <path
          d="M83.39,122.15l-.42,.21c-.04,.37-.07,.75-.11,1.12,.33-.43,.66-.86,.99-1.3l-.47-.03Z"
          style="fill: #eec00a; stroke: #1d1d1b; stroke-miterlimit: 10; stroke-width: .75px;" />
        <path d="M83.83,121.46c-.28,.3-.57,.6-.85,.9,.3-.03,.6-.09,.89-.17,0-.24-.01-.48-.03-.73Z"
          style="fill: #eec00a; stroke: #1d1d1b; stroke-miterlimit: 10; stroke-width: .75px;" />
        <path d="M84.78,120.54c-.26,.26-.53,.52-.79,.78,.26-.26,.53-.52,.79-.78Z"
          style="fill: #eec00a; stroke: #1d1d1b; stroke-miterlimit: 10; stroke-width: .75px;" />
        <path d="M99.31,105.43c-.3,.31-.6,.62-.9,.93,.3-.31,.6-.62,.9-.93Z"
          style="fill: #eec00a; stroke: #1d1d1b; stroke-miterlimit: 10; stroke-width: .75px;" />
        <path
          d="M92.18,124.63c1.33-.18,2.5-.94,3.72-1.23,3.39-.78,5.7-4.06,9.43-3.9-.27-1.81-1.8-2.28-3.14-2.96-1.55,.33-2.67,1.65-4.26,1.89-1.04,1.04-2.24,1.95-3.07,3.14-1.47,2.09-2.68,.99-3.98-.06-3.7,.32-4.9,3.33-6.42,5.99,.94,2.45,2.2,1.27,3.37,.26,1.36-1.17,2.45-2.72,4.36-3.12Z"
          style="fill: #eec00a; stroke: #1d1d1b; stroke-miterlimit: 10; stroke-width: .75px;" />
        <path
          d="M92.18,124.63c-1.74-1.01-2.75,.16-3.94,1.17-.92,.79-1.43,2.5-3.21,1.82-2.11-.12-3.11,.9-3.04,3,.92,.83,.95,1.95,.99,3.07,3.38-2.7,6.26-5.91,9.19-9.06Z"
          style="fill: #eec00a; stroke: #1d1d1b; stroke-miterlimit: 10; stroke-width: .75px;" />
        <path d="M122.45,129.69c-.33,0-.65,.06-.95,.19,.39,.29,.7,.19,.95-.19Z"
          style="fill: #eec00a; stroke: #1d1d1b; stroke-miterlimit: 10; stroke-width: .75px;" />
        <path
          d="M107.46,105.8c-.58,.49-1.09,1.24-2.03,.68-1.38,1.48-2.76,2.96-4.14,4.44-.29,1.7,1.29,1.89,2.15,2.65,2.01-2.65,4.02-5.3,6.03-7.96-.76-.87-1.38-.34-2.01,.19Z"
          style="fill: #eec00a; stroke: #1d1d1b; stroke-miterlimit: 10; stroke-width: .75px;" />
        <path d="M102.19,116.54c-2.5-1.81-2.98,.94-4.26,1.89,2.17,1.06,3.26-.32,4.26-1.89Z"
          style="fill: #96191c; stroke: #1d1d1b; stroke-miterlimit: 10; stroke-width: .75px;" />
        <path d="M114.61,90.23s-.03,.02-.04,.03c0,0-.02,.02-.02,.03l.06-.06Z"
          style="fill: #eec00a; stroke: #1d1d1b; stroke-miterlimit: 10; stroke-width: .75px;" />
        <path
          d="M115.62,95.29c2.1-1.13,3.14-3.28,4.72-4.91,1.16-1.2,1.11-2.65,.33-4.08-.4-.64-.74-.61-1.02,.1-.96,1.34-2.11,2.43-3.77,2.85-.55,.19-.97,.55-1.31,1.01,.01-.01,.03-.02,.04-.03l-.06,.06s.02-.02,.02-.03c-.42,.31-.75,.7-1.03,1.14-.46,.66-1.15,.89-1.89,1.05-1.43,.36-1.99,1.17-1.38,2.61,0,0,.14,.14,.14,.15,1.03,.14,2.1-.74,3.11,.1,.7-.17,1.39-.9,2.1-.03Z"
          style="fill: #eec00a; stroke: #1d1d1b; stroke-miterlimit: 10; stroke-width: .75px;" />
        <path
          d="M121.61,85.08c.01-.64,.02-1.28,.03-1.92-1.04,.86-1.56,2.03-2,3.25,.34-.03,.68-.07,1.02-.1,.32-.41,.63-.82,.95-1.23Z"
          style="fill: #eec00a; stroke: #1d1d1b; stroke-miterlimit: 10; stroke-width: .75px;" />
        <path
          d="M111.65,92.46c-2.49-.51-2.64,.91-2.27,2.76,.3-.04,.59-.09,.88-.15,.46-.87,.92-1.74,1.38-2.61Z"
          style="fill: #eec00a; stroke: #1d1d1b; stroke-miterlimit: 10; stroke-width: .75px;" />
        <path d="M114.61,90.23c-.36,.39-.71,.78-1.07,1.17,.36-.39,.71-.78,1.07-1.17Z"
          style="fill: #eec00a; stroke: #1d1d1b; stroke-miterlimit: 10; stroke-width: .75px;" />
        <path d="M115.88,89.26c-.45,.34-.89,.69-1.34,1.03,.45-.34,.89-.69,1.34-1.03Z"
          style="fill: #eec00a; stroke: #1d1d1b; stroke-miterlimit: 10; stroke-width: .75px;" />
        <path d="M81.02,131.6c.31-.32,.63-.64,.94-.96-.31,.32-.63,.64-.94,.96Z"
          style="fill: #eec00a; stroke: #1d1d1b; stroke-miterlimit: 10; stroke-width: .75px;" />
        <path d="M68.7,140.65c-.32,.35-.64,.71-.96,1.06,.32-.35,.64-.71,.96-1.06Z"
          style="fill: #eec00a; stroke: #1d1d1b; stroke-miterlimit: 10; stroke-width: .75px;" />
      </g>
    </g>
  </g>
</svg>